<svg xmlns="http://www.w3.org/2000/svg" width="146.214" height="38.807" viewBox="0 0 146.214 38.807"><defs><style>.a{fill:#159e57;}.b{fill:#0b592c;}.c{fill:#fff;}</style></defs><g transform="translate(-4542 6114)"><g transform="translate(4542 -6114)"><path class="a" d="M296.007,947.086h-1.743a2.635,2.635,0,0,1-2.91-2.911v-1.742a3.108,3.108,0,0,1,3.108-3.108h1.545a3.108,3.108,0,0,1,3.108,3.108v1.545A3.108,3.108,0,0,1,296.007,947.086Z" transform="translate(-275.831 -939.325)"/><path class="a" d="M276.28,967h-2.155a2.762,2.762,0,0,1-2.748-3.04V962.41a3.108,3.108,0,0,1,3.108-3.108h1.545a3.108,3.108,0,0,1,3.108,3.108v1.545A2.847,2.847,0,0,1,276.28,967Z" transform="translate(-263.616 -951.541)"/><path class="a" d="M256.054,987.04h-1.545a3.108,3.108,0,0,1-3.108-3.108v-1.545a3.108,3.108,0,0,1,3.108-3.108h1.545a2.909,2.909,0,0,1,3.108,2.863l-.018,2.1A2.841,2.841,0,0,1,256.054,987.04Z" transform="translate(-251.401 -963.755)"/><path class="a" d="M276.03,1007.1h-1.545a3.108,3.108,0,0,1-3.108-3.108v-1.545a2.757,2.757,0,0,1,2.736-3.044l2.174-.011a2.854,2.854,0,0,1,2.851,3.055v1.545A3.108,3.108,0,0,1,276.03,1007.1Z" transform="translate(-263.616 -976.055)"/><path class="a" d="M3.108,0H4.653A3.108,3.108,0,0,1,7.761,3.108V4.653A3.108,3.108,0,0,1,4.653,7.761H3.108A3.108,3.108,0,0,1,0,4.653V3.108A3.108,3.108,0,0,1,3.108,0Z" transform="translate(15.523 31.045)"/><path class="a" d="M295.96,987.05h-1.545A2.976,2.976,0,0,1,291.4,984v-2.117c0-1.717,1.3-2.6,3.014-2.6h1.545a3.108,3.108,0,0,1,3.108,3.108v1.545A3.108,3.108,0,0,1,295.96,987.05Z" transform="translate(-275.86 -963.762)"/><path class="a" d="M283.8,954.826a2.826,2.826,0,0,0,2.935-2.895l2.711.187v2.677a2.552,2.552,0,0,0-2.74,2.952l-2.683-.148Z" transform="translate(-271.213 -947.033)"/><path class="a" d="M284.015,994.522c2.961,0,2.87-3.095,2.87-3.095l2.693.365.235,2.647a2.8,2.8,0,0,0-2.978,2.963l-2.68-.129Z" transform="translate(-271.344 -971.184)"/><path class="a" d="M286.873,977.528A2.538,2.538,0,0,0,284,974.857l.182-2.644,2.618-.054a2.634,2.634,0,0,0,3,2.8l-.134,2.681Z" transform="translate(-271.332 -959.402)"/><path class="a" d="M266.943,997.244c0-2.961-3.057-2.389-3.057-2.389l.187-2.711,2.705-.084a2.54,2.54,0,0,0,2.754,2.859l.021,2.647Z" transform="translate(-259.035 -971.571)"/><path class="a" d="M286.911,1017.225a2.722,2.722,0,0,0-2.917-2.826l.183-2.653,2.644-.322a2.876,2.876,0,0,0,2.933,3.069l-.1,2.676Z" transform="translate(-271.331 -983.412)"/><path class="a" d="M264.192,974.56a2.768,2.768,0,0,0,2.814-3l2.689.323.036,2.608a2.545,2.545,0,0,0-2.748,2.931l-2.711-.059Z" transform="translate(-259.222 -959.035)"/><path class="b" d="M1.943,0H3.5A1.943,1.943,0,0,1,5.439,1.943V3.5A1.943,1.943,0,0,1,3.5,5.439H1.943A1.943,1.943,0,0,1,0,3.5V1.943A1.943,1.943,0,0,1,1.943,0Z" transform="translate(25.801 8.922)"/><path class="b" d="M1.943,0H3.5A1.943,1.943,0,0,1,5.439,1.943V3.5A1.943,1.943,0,0,1,3.5,5.439H1.943A1.943,1.943,0,0,1,0,3.5V1.943A1.943,1.943,0,0,1,1.943,0Z" transform="translate(32.27 16.684)"/><path class="b" d="M1.943,0H3.5A1.943,1.943,0,0,1,5.439,1.943V3.5A1.943,1.943,0,0,1,3.5,5.439H1.943A1.943,1.943,0,0,1,0,3.5V1.943A1.943,1.943,0,0,1,1.943,0Z" transform="translate(25.801 24.445)"/></g><g transform="translate(4588.746 -6103)"><path class="c" d="M384.352,978.193v3.031H371.717V964.906h12.332v3.03H375.47v3.543h7.576v2.937H375.47v3.776Z" transform="translate(-371.717 -964.906)"/><path class="c" d="M413.564,979.569a7.446,7.446,0,0,1-1.947-5.525v-9.138h3.776v9q0,4.383,3.637,4.382a3.407,3.407,0,0,0,2.7-1.061,4.943,4.943,0,0,0,.932-3.322v-9h3.73v9.138a7.718,7.718,0,0,1-12.832,5.525Z" transform="translate(-396.115 -964.906)"/><path class="c" d="M469.653,981.224l-3.147-4.546h-3.473v4.546h-3.776V964.906h7.063a9.072,9.072,0,0,1,3.765.723,5.6,5.6,0,0,1,2.459,2.051,5.657,5.657,0,0,1,.862,3.147,5.316,5.316,0,0,1-3.357,5.152l3.66,5.245Zm-.956-12.506a3.967,3.967,0,0,0-2.588-.734h-3.077v5.688h3.077a3.921,3.921,0,0,0,2.588-.746,2.941,2.941,0,0,0,0-4.208Z" transform="translate(-425.245 -964.906)"/><path class="c" d="M515.99,978.193v3.031H503.355V964.906h12.332v3.03h-8.579v3.543h7.576v2.937h-7.576v3.776Z" transform="translate(-452.211 -964.906)"/><path class="c" d="M549.559,974.813l-2.191,2.285v4.126h-3.753V964.906h3.753v7.623l7.226-7.623h4.2l-6.76,7.273,7.157,9.045h-4.406Z" transform="translate(-476.829 -964.906)"/><path class="c" d="M593.526,977.727H585.95l-1.445,3.5h-3.87l7.273-16.318h3.73l7.3,16.318h-3.963Zm-1.189-2.867-2.587-6.247-2.588,6.247Z" transform="translate(-499.466 -964.906)"/></g></g></svg>