<svg xmlns="http://www.w3.org/2000/svg" width="33.532" height="41.446" viewBox="0 0 33.532 41.446"><defs><style>.a{fill:#18ae61;}</style></defs><path class="a" d="M79.409,7.206a16.734,16.734,0,0,0-27.514,0,16.737,16.737,0,0,0-1.949,15.421,13.181,13.181,0,0,0,2.429,4.011l12.173,14.3a1.448,1.448,0,0,0,2.207,0l12.17-14.295a13.194,13.194,0,0,0,2.429-4.005A16.74,16.74,0,0,0,79.409,7.206ZM78.64,21.621a10.337,10.337,0,0,1-1.911,3.131l-.007.008-11.07,13L54.576,24.752a10.343,10.343,0,0,1-1.915-3.14A13.844,13.844,0,0,1,54.279,8.854a13.836,13.836,0,0,1,22.746,0A13.847,13.847,0,0,1,78.64,21.621Z" transform="translate(-48.886)"/><g transform="translate(8.651 8.598)"><path class="a" d="M163.869,106.219a8.115,8.115,0,1,0,8.115,8.115A8.125,8.125,0,0,0,163.869,106.219Zm0,13.332a5.217,5.217,0,1,1,5.217-5.217A5.223,5.223,0,0,1,163.869,119.551Z" transform="translate(-155.754 -106.219)"/></g></svg>