<svg xmlns="http://www.w3.org/2000/svg" width="53.919" height="43.272" viewBox="0 0 53.919 43.272"><defs><style>.a{fill:#18ae61;}</style></defs><path class="a" d="M53.609,12.222,41.7.307A1.052,1.052,0,0,0,40.23.285c-.925.872-5.274,4.967-5.337,5.028l-.012.011a4.414,4.414,0,0,1-3.288,1.489,8.357,8.357,0,0,0-6.109,2.251,7.842,7.842,0,0,0-4.929-2.123L15.292,1.676a1.053,1.053,0,0,0-1.49,0L.308,15.171a1.051,1.051,0,0,0-.023,1.464l.023.026L9.1,25.439l-.372.372A3.682,3.682,0,0,0,11.374,32.1,3.681,3.681,0,0,0,15.1,35.824a3.679,3.679,0,0,0,3.723,3.722,3.685,3.685,0,0,0,6.291,2.648l.373-.373.373.373a3.686,3.686,0,0,0,6.291-2.645,3.68,3.68,0,0,0,3.721-3.722A3.684,3.684,0,0,0,39.595,32.1a3.682,3.682,0,0,0,2.645-6.288l-.371-.371c7.342-7.334-1.946,1.961,11.742-11.728a1.053,1.053,0,0,0,0-1.489ZM2.542,15.915l12-12,4.046,4.046-12,12Zm7.676,13.619a1.579,1.579,0,0,1,0-2.234l3.724-3.724a1.58,1.58,0,1,1,2.234,2.235l-3.722,3.722a1.584,1.584,0,0,1-2.235,0Zm3.724,3.724a1.579,1.579,0,0,1,0-2.235L17.665,27.3A1.58,1.58,0,0,1,19.9,29.534h0l-3.723,3.723a1.581,1.581,0,0,1-2.234,0Zm3.723,3.722a1.579,1.579,0,0,1,0-2.233l3.724-3.724a1.58,1.58,0,0,1,2.234,2.234h0L19.9,36.98a1.583,1.583,0,0,1-2.235,0ZM21.389,40.7a1.579,1.579,0,0,1,0-2.235l3.723-3.723a1.58,1.58,0,0,1,2.234,2.234L23.623,40.7a1.582,1.582,0,0,1-2.234,0Zm8.191,0a1.581,1.581,0,0,1-2.233,0l-.373-.373,1.862-1.862a3.806,3.806,0,0,0,.345-.4l.4.4h0a1.578,1.578,0,0,1,0,2.234ZM40.75,29.534a1.583,1.583,0,0,1-2.235,0l-4.84-4.84a1.053,1.053,0,1,0-1.49,1.489l4.841,4.841a1.58,1.58,0,0,1-2.234,2.234l-4.84-4.841a1.053,1.053,0,0,0-1.49,1.49l4.84,4.841a1.579,1.579,0,0,1-1.117,2.7c-1,0-1.323-.788-2.272-1.618a3.684,3.684,0,0,0-3.722-3.647,3.681,3.681,0,0,0-3.724-3.721,3.681,3.681,0,0,0-3.723-3.725,3.686,3.686,0,0,0-6.291-2.645L10.59,23.95l-2.509-2.5,12.394-12.4a5.686,5.686,0,0,1,3.516,1.5l-2.975,2.975a4.213,4.213,0,1,0,5.958,5.957L29.953,16.5l10.8,10.8a1.581,1.581,0,0,1,0,2.233Zm-.372-5.583-8.937-8.937.745-.745a1.053,1.053,0,0,0-1.49-1.49l-5.213,5.213A2.107,2.107,0,0,1,22.5,15.013l4.288-4.287a6.274,6.274,0,0,1,4.8-1.806,6.184,6.184,0,0,0,3.98-1.4L46.06,18.283,40.378,23.95Zm7.172-7.157L37.128,6.1l3.8-3.582L51.376,12.967Zm0,0" transform="translate(0.001 0.001)"/></svg>