<svg xmlns="http://www.w3.org/2000/svg" width="42.209" height="42.209" viewBox="0 0 42.209 42.209"><defs><style>.a{fill:#18ae61;}</style></defs><path class="a" d="M40.973,3.046H35.556q.029-.9.031-1.81A1.237,1.237,0,0,0,34.35,0H7.859A1.237,1.237,0,0,0,6.623,1.237q0,.91.031,1.81H1.237A1.237,1.237,0,0,0,0,4.283,26.8,26.8,0,0,0,4.078,19c2.6,3.907,6.061,6.147,9.8,6.365a12.7,12.7,0,0,0,2.678,2.249v5.5H14.482a4.553,4.553,0,0,0-4.548,4.548v2.075H9.846a1.237,1.237,0,1,0,0,2.473H32.363a1.237,1.237,0,0,0,0-2.473h-.088V37.661a4.553,4.553,0,0,0-4.548-4.548H25.653v-5.5a12.689,12.689,0,0,0,2.678-2.249c3.74-.218,7.2-2.459,9.8-6.365a26.8,26.8,0,0,0,4.077-14.72A1.237,1.237,0,0,0,40.973,3.046ZM6.137,17.633A23.832,23.832,0,0,1,2.5,5.52H6.791a41.323,41.323,0,0,0,3.842,15q.495.989,1.032,1.869A11.926,11.926,0,0,1,6.137,17.633ZM29.8,37.661v2.075H12.407V37.661a2.077,2.077,0,0,1,2.075-2.075H27.727A2.077,2.077,0,0,1,29.8,37.661ZM23.18,33.113H19.03V28.692a8.046,8.046,0,0,0,4.15,0Zm.766-7.364a1.2,1.2,0,0,0-.16.081,5.774,5.774,0,0,1-5.36,0,1.231,1.231,0,0,0-.162-.082,9.954,9.954,0,0,1-2.795-2.3,1.252,1.252,0,0,0-.157-.184,19.493,19.493,0,0,1-2.466-3.845A40.821,40.821,0,0,1,9.11,2.473H33.1a40.831,40.831,0,0,1-3.735,16.942A19.508,19.508,0,0,1,26.9,23.261a1.22,1.22,0,0,0-.158.185A9.957,9.957,0,0,1,23.945,25.75Zm12.127-8.117a11.926,11.926,0,0,1-5.529,4.758q.537-.88,1.032-1.869a41.329,41.329,0,0,0,3.842-15H39.71A23.833,23.833,0,0,1,36.073,17.633Zm0,0"/></svg>