<svg xmlns="http://www.w3.org/2000/svg" width="46.341" height="46.341" viewBox="0 0 46.341 46.341"><defs><style>.a{fill:#18ae61;}</style></defs><g transform="translate(28.963 24.619)"><path class="a" d="M324.344,279.241c-.886,0-1.448-.475-1.448-.724s.562-.724,1.448-.724a2.049,2.049,0,0,1,1.135.307,1.449,1.449,0,1,0,1.61-2.41,4.675,4.675,0,0,0-1.3-.594v-1.648a1.448,1.448,0,1,0-2.9,0v1.671a3.727,3.727,0,0,0-2.9,3.4c0,2,1.949,3.62,4.344,3.62.886,0,1.448.475,1.448.724s-.562.724-1.448.724a2.05,2.05,0,0,1-1.135-.307,1.449,1.449,0,1,0-1.61,2.41,4.594,4.594,0,0,0,1.3.594v1.648a1.448,1.448,0,1,0,2.9,0v-1.671a3.727,3.727,0,0,0,2.9-3.4C328.689,280.866,326.74,279.241,324.344,279.241Z" transform="translate(-320 -272)"/></g><g transform="translate(20.274 20.274)"><path class="a" d="M237.033,224a13.033,13.033,0,1,0,13.033,13.033A13.049,13.049,0,0,0,237.033,224Zm0,23.17a10.137,10.137,0,1,1,10.137-10.137A10.148,10.148,0,0,1,237.033,247.17Z" transform="translate(-224 -224)"/></g><path class="a" d="M34.663,15.8A17.367,17.367,0,0,0,0,17.378,17.259,17.259,0,0,0,15.8,34.663c.043,0,.084.006.13.006a1.448,1.448,0,0,0,.125-2.891A14.471,14.471,0,0,1,17.378,2.9a14.377,14.377,0,0,1,14.4,13.161,1.485,1.485,0,0,0,1.57,1.315A1.448,1.448,0,0,0,34.663,15.8Z"/><g transform="translate(15.93 5.793)"><path class="a" d="M186.427,74.137H178.9V65.448a1.448,1.448,0,0,0-2.9,0V75.585a1.449,1.449,0,0,0,1.448,1.448h8.979a1.448,1.448,0,0,0,0-2.9Z" transform="translate(-176 -64)"/></g></svg>