<svg xmlns="http://www.w3.org/2000/svg" width="47.466" height="50.927" viewBox="0 0 47.466 50.927"><defs><style>.a{fill:none;stroke:#18ae61;stroke-linecap:round;stroke-width:2px;}</style></defs><g transform="translate(1.414 1.414)"><g transform="translate(17.39)"><line class="a" y1="4.927" x2="4.927"/><line class="a" x1="4.927" y1="4.927" transform="translate(4.927)"/><line class="a" y1="11.878" transform="translate(4.927 0.298)"/></g><g transform="translate(27.247 48.099) rotate(180)"><line class="a" y1="4.927" x2="4.927"/><line class="a" x1="4.927" y1="4.927" transform="translate(4.927)"/><line class="a" y1="11.878" transform="translate(4.927 0.298)"/></g><g transform="translate(36.857 2.946) rotate(45)"><g transform="translate(0 0)"><line class="a" y1="4.927" x2="4.927"/><line class="a" x1="4.927" y1="4.927" transform="translate(4.927)"/></g><line class="a" y1="11.878" transform="translate(4.927 0.298)"/></g><g transform="translate(7.778 45.153) rotate(-135)"><g transform="translate(0 0)"><line class="a" y1="4.927" x2="4.927"/><line class="a" x1="4.927" y1="4.927" transform="translate(4.927)"/></g><line class="a" y1="11.878" transform="translate(4.927 0.298)"/></g><g transform="translate(0.81 9.915) rotate(-45)"><line class="a" y1="4.927" x2="4.927"/><line class="a" x1="4.927" y1="4.927" transform="translate(4.927)"/><line class="a" y1="11.878" transform="translate(4.927 0.298)"/></g><g transform="translate(43.827 38.184) rotate(135)"><g transform="translate(0 0)"><line class="a" y1="4.927" x2="4.927" transform="translate(0)"/><line class="a" x1="4.927" y1="4.927" transform="translate(4.927)"/></g><line class="a" y1="11.878" transform="translate(4.927 0.298)"/></g><g transform="translate(0 29.383) rotate(-90)"><line class="a" y1="4.927" x2="4.927"/><line class="a" x1="4.927" y1="4.927" transform="translate(4.927)"/><line class="a" y1="11.878" transform="translate(4.927 0.298)"/></g><g transform="translate(44.638 19.529) rotate(90)"><g transform="translate(0 0)"><line class="a" y1="4.927" x2="4.927"/><line class="a" x1="4.927" y1="4.927" transform="translate(4.927)"/></g><line class="a" y1="11.878" transform="translate(4.927 0.298)"/></g></g></svg>