<svg xmlns="http://www.w3.org/2000/svg" width="129.977" height="32.234" viewBox="0 0 129.977 32.234"><defs><style>.a{fill:#161616;}</style></defs><path class="a" d="M125.794,76.229h3.027a.314.314,0,0,0,.313-.313s-.037-2.594-.037-3.315v-.009a3.416,3.416,0,0,1,.341-1.541l.1-.194a.063.063,0,0,0-.035.019l-5.878,5.829a.066.066,0,0,0-.022.034c.122-.06.288-.142.311-.153A4.526,4.526,0,0,1,125.794,76.229Zm23.539-.635a2.682,2.682,0,0,0-1.7-2.17,22.443,22.443,0,0,0-4.159-.773,32.277,32.277,0,0,0-4.412-.132,2.62,2.62,0,0,0-1.457-1.99,11.309,11.309,0,0,0-5.49-.362,2.937,2.937,0,0,0-1.6,1.021,2.371,2.371,0,0,0-.4,1.412c0,.351.01,1.179.019,1.914s.019,1.4.019,1.4a1.193,1.193,0,0,1-1.192,1.192h-3.026a3.641,3.641,0,0,0-1.515.28,2.109,2.109,0,0,0-.847.675,3.052,3.052,0,0,0-.473,1.9,16.3,16.3,0,0,0,.14,1.639c.112.836,1.019,6.677,1.88,8.453a2.173,2.173,0,0,0,1.212,1.284,32.622,32.622,0,0,0,6.365,1.521c1.562.2,2.542.62,3.126-.605,0,0,.117-.3.275-.747a12.146,12.146,0,0,0,.578-3.888.074.074,0,1,1,.147,0c0,.7-.133,3.162,1.729,3.824a22.2,22.2,0,0,0,3.81.675c1.4.161,2.418.712,2.418,4.308,0,2.187-.459,2.487-2.861,2.487-1.947,0-2.689.05-2.689-1.5,0-1.25,1.236-1.119,2.153-1.119.409,0,.112-.3.112-1.076s.48-1.211.026-1.222c-3.168-.087-5.033,0-5.033,3.959,0,3.6,1.377,4.265,5.874,4.265,3.526,0,4.769-.115,6.225-4.633A41.782,41.782,0,0,0,150,89.4,89.794,89.794,0,0,0,149.334,75.595Zm-6.146,9.638a6.449,6.449,0,0,0-1.245.075c.11-.888.476-1.978,1.775-1.932,1.437.049,1.639,1.408,1.644,2.328A5.909,5.909,0,0,0,143.187,85.233Z" transform="translate(-123.101 -69.986)"/><path class="a" d="M2427.194,247.055a1.009,1.009,0,1,1-1.008,1.007A1.007,1.007,0,0,1,2427.194,247.055Zm0,1.839a.832.832,0,1,0-.819-.832A.823.823,0,0,0,2427.194,248.894Zm-.43-1.408h.443c.285,0,.432.1.432.332a.315.315,0,0,1-.3.328l.31.493h-.217l-.3-.483h-.178v.483h-.19v-1.153h0Zm.19.493h.253c.184,0,.241-.063.241-.171s-.091-.145-.241-.145h-.253Z" transform="translate(-2298.224 -237.217)"/><g transform="translate(31.086 9.603)"><path class="a" d="M682.6,253.378h1.355l.065-8.654H682.6v-1.66h8.981l.109,3.365h-1.77l-.153-1.7h-3.388l-.022,3.387h3.431v1.661h-3.453l-.021,3.606h3.409l.219-1.924h1.923l-.219,3.584H682.6Zm23.382-8.654h-1.136l-4.262,10.315h-2.447l-4.284-10.315h-1.2v-1.66h5.114v1.66h-1.2l2.95,8.13h.043l2.929-8.13h-1.442v-1.66h4.938Zm1.18,8.654h1.354l.066-8.654h-1.42v-1.66h8.981l.109,3.365h-1.77l-.153-1.7h-3.387l-.022,3.387h3.431v1.661H710.9l-.022,3.606h3.409l.219-1.924h1.923l-.219,3.584h-9.047Zm11.516,0h1.355l.065-8.654h-1.42v-1.66h5.529c2.776,0,3.671,1.6,3.671,3.147,0,1.377-.677,2.623-2.819,3.169v.044c1.114.306,1.4.59,2.514,2.513.742,1.246,1,1.443,1.42,1.443a3.558,3.558,0,0,0,.5-.066v1.726h-1.224c-1.617,0-1.813-.2-3.08-2.71-1.137-2.229-1.4-2.381-2.274-2.381h-.48l-.022,3.431h1.42v1.66H718.68v-1.66h0Zm3.781-5.092h.939c1.289,0,2.163-.7,2.163-1.813a1.529,1.529,0,0,0-1.639-1.749h-1.443Zm18.028-3.562h-1.421v-1.66h4.7v1.66h-1.355l-.065,10.315h-1.792l-6.4-8.523h-.043l-.066,6.862h1.421v1.66h-4.7v-1.66h1.355l.065-8.654h-1.42v-1.66h3.54l6.075,8.108h.044Zm10.073-1.9c4.131,0,5.944,2.732,5.944,6.054,0,3.78-2.251,6.4-5.944,6.4-4.13,0-5.944-2.731-5.944-6.074C744.618,245.446,746.868,242.822,750.562,242.822Zm0,10.534c2.228,0,3.5-1.9,3.5-4.327,0-2.731-1.485-4.282-3.5-4.282-2.229,0-3.5,1.9-3.5,4.37C747.065,251.8,748.552,253.356,750.562,253.356Zm9.7.022h1.354l.065-8.654h-2.4l-.089,1.7H757.38l.13-3.365h10.731l.131,3.365h-1.815l-.087-1.7h-2.4L764,253.378h1.42v1.66h-5.156v-1.66Zm9.439,0h1.355l.066-8.654H769.7v-1.66h8.983l.108,3.365h-1.77l-.153-1.7h-3.387l-.022,3.387h3.43v1.661H773.44l-.022,3.606h3.409l.22-1.924h1.922l-.218,3.584H769.7Z" transform="translate(-682.602 -242.822)"/></g></svg>