<svg xmlns="http://www.w3.org/2000/svg" xmlns:xlink="http://www.w3.org/1999/xlink" width="91.052" height="51.804" viewBox="0 0 91.052 51.804"><defs><style>.a{fill:none;}.b{fill:#e31f1a;}.c{fill:#868686;}.d{fill:#d3d3d3;}.e{clip-path:url(#a);}.f{clip-path:url(#b);}</style><clipPath id="a"><path class="a" d="M0,0H5.458V8.394H0Z" transform="translate(0.182 0.606)"/></clipPath><clipPath id="b"><path class="a" d="M0,0H6.33V8.522H0Z" transform="translate(0.9 0.478)"/></clipPath></defs><g transform="translate(0 -1)"><path class="b" d="M19.577,0V13.5H9.477V0H0V38.057H9.477V22.687h10.1v15.37h9.4V0Z" transform="translate(0.093 1.695)"/><path class="c" d="M0,0V8.892H8.16V38.057h9.478V8.892H25.8V0Z" transform="translate(34.373 1.695)"/><g transform="translate(0 0.805)"><path class="c" d="M0,38.752V14.259A14.166,14.166,0,0,1,3.827,3.924,13.468,13.468,0,0,1,13.927,0a13.208,13.208,0,0,1,9.66,3.843A12.759,12.759,0,0,1,27.481,13.3,12.14,12.14,0,0,1,23.3,22.923q-4.187,3.643-11.149,3.643h-.985V17.491h1.465a5.744,5.744,0,0,0,3.81-1.162,3.918,3.918,0,0,0,1.384-3.166,3.969,3.969,0,0,0-4.1-4.088A3.828,3.828,0,0,0,10.6,10.424,5.762,5.762,0,0,0,9.478,14.2V38.752Z" transform="translate(63.572 0.196)"/><path class="d" d="M3.429,8.267H0V0H3.056A4.116,4.116,0,0,1,4.342.169a1.762,1.762,0,0,1,.886.709A2.173,2.173,0,0,1,5.6,2.143a1.935,1.935,0,0,1-.379,1.191,1.7,1.7,0,0,1-1.045.645,1.95,1.95,0,0,1,1.252.708,2.122,2.122,0,0,1,.425,1.319,2.3,2.3,0,0,1-.595,1.609A2.371,2.371,0,0,1,3.429,8.267ZM1.338,4.651V7.025H3.165a1.273,1.273,0,0,0,.915-.32,1.15,1.15,0,0,0,.337-.867,1.15,1.15,0,0,0-.342-.854,1.248,1.248,0,0,0-.9-.333Zm0-3.471V3.47H3.061A1.084,1.084,0,0,0,3.9,3.136,1.2,1.2,0,0,0,4.2,2.289a.993.993,0,0,0-.351-.839,1.311,1.311,0,0,0-.822-.27Z" transform="translate(0 43.606)"/><path class="d" d="M5.095,8.268H0V0H5.043V1.229H1.413V3.471H4.331v1.2H1.413V6.984H5.095Z" transform="translate(11.613 43.605)"/><path class="d" d="M4.825,8.268H0V0H1.487V6.917H4.825Z" transform="translate(22.394 43.605)"/><path class="d" d="M1.207,8.268H0L2.6,0H4.343l2.63,8.266H5.463L4.837,6.3H1.821L1.207,8.267ZM3.315,1.416h0L2.171,5.1H4.458L3.315,1.416Z" transform="translate(31.905 43.606)"/><path class="d" d="M1.413,8.269H0V0H3.4A2.837,2.837,0,0,1,5.486.675a2.389,2.389,0,0,1,.666,1.747A2.2,2.2,0,0,1,4.74,4.615L6.111,8.267H4.619L3.4,4.869H1.413v3.4Zm0-7.082V3.676H3.171a1.662,1.662,0,0,0,1.138-.338A1.2,1.2,0,0,0,4.682,2.4a1.142,1.142,0,0,0-.368-.882,1.473,1.473,0,0,0-1.028-.336Z" transform="translate(44.288 43.605)"/><g transform="translate(56 43)"><path class="a" d="M0,0H5.458V8.394H0Z" transform="translate(0.182 0.606)"/><g class="e"><path class="d" d="M5.458,0V5.312a4.7,4.7,0,0,1-.23,1.659,2.152,2.152,0,0,1-.887,1A2.926,2.926,0,0,1,2.735,8.4a3.08,3.08,0,0,1-1.577-.364,2.081,2.081,0,0,1-.887-1A4.14,4.14,0,0,1,0,5.421V0H1.442V5.312a1.788,1.788,0,0,0,.434,1.432,1.578,1.578,0,0,0,1.009.342A1.494,1.494,0,0,0,3.941,6.72a1.9,1.9,0,0,0,.4-1.408V0Z" transform="translate(0.182 0.606)"/></g></g><g transform="translate(66 43)"><path class="a" d="M0,0H6.33V8.522H0Z" transform="translate(0.9 0.478)"/><g class="f"><path class="d" d="M0,6.4l1.374-.309q.246,1.23,1.9,1.23a1.847,1.847,0,0,0,1.158-.316.953.953,0,0,0,.4-.78A1.143,1.143,0,0,0,4.647,5.6a1.309,1.309,0,0,0-.787-.451l-1.5-.412a3.576,3.576,0,0,1-1.137-.481,1.868,1.868,0,0,1-.589-.76A2.51,2.51,0,0,1,.414,2.447,2.22,2.22,0,0,1,1.2.67a2.954,2.954,0,0,1,2-.67A3.508,3.508,0,0,1,5,.466,2.086,2.086,0,0,1,6.015,1.787L4.67,2.138A1.354,1.354,0,0,0,3.223,1.2a1.535,1.535,0,0,0-1.009.291.922.922,0,0,0-.347.739q0,.709,1.091.993l1.333.351a2.7,2.7,0,0,1,1.626.948A2.468,2.468,0,0,1,6.33,5.906a2.328,2.328,0,0,1-.87,1.917,3.489,3.489,0,0,1-2.255.7,3.952,3.952,0,0,1-2.041-.515A2.5,2.5,0,0,1,0,6.4" transform="translate(0.9 0.478)"/></g></g></g></g></svg>