<svg xmlns="http://www.w3.org/2000/svg" width="39.373" height="41.668" viewBox="0 0 39.373 41.668"><defs><style>.a{fill:#18ae61;}</style></defs><path class="a" d="M344.3,293.5a12.426,12.426,0,0,0-9.024,3.485c-2.34,2.357-3.743,5.892-3.738,10.5,0,7.031,3.227,13.171,7.991,15.7a7.931,7.931,0,0,0-2.043.752,3.789,3.789,0,0,0-1.936,2.211,8.971,8.971,0,0,1-2.643-.64,4.01,4.01,0,0,1-2.694-3.962c0-3.036.1-5.258.1-5.264l.034-.881h-1.762l-2.335-2.318-.011-6.644,4.484-4.389.062-.224a15.485,15.485,0,0,1,3.62-6.689,13.4,13.4,0,0,1,9.793-4.394h.039v-1.684H344.2a15.048,15.048,0,0,0-11.022,4.933,17.076,17.076,0,0,0-3.962,7.183l-4.658,4.557.011,8.047,3.322,3.305h.707c-.028.937-.067,2.536-.067,4.461a5.729,5.729,0,0,0,3.715,5.511,10.919,10.919,0,0,0,3.418.791,4.018,4.018,0,0,0,1.824,1.88,9.725,9.725,0,0,0,8.586,0,3.465,3.465,0,0,0,2.043-2.9,3.285,3.285,0,0,0-1.678-2.671c6.173-1.386,10.623-8.418,10.623-16.678.006-4.607-1.392-8.143-3.732-10.5A12.448,12.448,0,0,0,344.3,293.5Zm.954,34.754a8.019,8.019,0,0,1-6.947,0c-.853-.477-1.19-1.021-1.173-1.42-.017-.4.32-.943,1.173-1.42a8.019,8.019,0,0,1,6.947,0c.859.477,1.19,1.021,1.173,1.42C346.446,327.23,346.115,327.774,345.256,328.251Zm6.8-9.882c-2.048,2.75-4.781,4.372-7.755,4.372s-5.707-1.622-7.75-4.372a18.425,18.425,0,0,1-3.328-10.887c.073-8.525,4.877-12.234,11.078-12.3,6.2.068,11,3.777,11.078,12.3A18.461,18.461,0,0,1,352.058,318.369Zm-17.4-8.665Zm16.089-6.936-.488-1.437-.96,1.178a7.052,7.052,0,0,1-.583.612,18.724,18.724,0,0,1-9.563,4.68,16.225,16.225,0,0,1-2.991.3,12.144,12.144,0,0,1-1.33-.073l-.174,1.678a12.67,12.67,0,0,0,1.5.073,17.373,17.373,0,0,0,3.294-.32,20.573,20.573,0,0,0,10.18-4.893c.645,1.56,1.919,4.2,3.726,5.612l1.016-1.347a10.648,10.648,0,0,1-2.587-3.586A24.661,24.661,0,0,1,350.745,302.768Zm8.519-1.644a17.174,17.174,0,0,0-3.945-7.133,15.09,15.09,0,0,0-11.061-4.933v1.684a13.4,13.4,0,0,1,9.826,4.394,15.5,15.5,0,0,1,3.608,6.639l.056.224,4.495,4.433-.006,6.645L359.9,315.4h-.887v1.683H360.6l3.317-3.305.011-8.042Z" transform="translate(-324.56 -289.058)"/></svg>