<svg xmlns="http://www.w3.org/2000/svg" width="33.693" height="42.563" viewBox="0 0 33.693 42.563"><defs><style>.a{fill:#18ae61;stroke:#18ae61;stroke-width:0.4px;}</style></defs><g transform="translate(0.2 0.283)"><g transform="translate(4.958 4.032)"><path class="a" d="M450.637,450.862h-1.459V436.81a10.222,10.222,0,1,0-20.444,0v12.427h-1.459V436.81a11.681,11.681,0,0,1,23.363,0Z" transform="translate(-427.274 -425.129)"/></g><g transform="translate(4.958 22.171)"><path class="a" d="M427.274,427.876h1.459v8.234a10.222,10.222,0,0,0,20.444,0v-7.831h1.459v7.831a11.681,11.681,0,0,1-23.363,0Z" transform="translate(-427.274 -427.876)"/></g><g transform="translate(4.961 16.899)"><rect class="a" width="23.358" height="1.457"/></g><g transform="translate(15.912 16.899)"><rect class="a" width="1.457" height="24.331"/></g><g transform="translate(9.408 0)"><g transform="translate(0 0)"><rect class="a" width="1.457" height="6.415" transform="translate(0 1.03) rotate(-45)"/></g></g><g transform="translate(0.277 10.299)"><g transform="translate(0 0)"><rect class="a" width="1.457" height="6.415" transform="matrix(0.557, -0.83, 0.83, 0.557, 0, 1.21)"/></g></g><g transform="translate(26.878 10.3)"><g transform="translate(0 0)"><rect class="a" width="6.415" height="1.457" transform="matrix(0.83, -0.557, 0.557, 0.83, 0, 3.576)"/></g></g><g transform="translate(1.745 32.86)"><g transform="translate(0 0)"><rect class="a" width="6.118" height="1.39" transform="translate(0 4.326) rotate(-45)"/></g></g><g transform="translate(26.414 32.859)"><g transform="translate(0 0)"><rect class="a" width="1.39" height="6.118" transform="translate(0 0.983) rotate(-45)"/></g></g><g transform="translate(26.878 23.233)"><rect class="a" width="6.415" height="1.457"/></g><g transform="translate(0 23.233)"><rect class="a" width="6.415" height="1.457"/></g><g transform="translate(18.286 0)"><g transform="translate(0)"><rect class="a" width="6.415" height="1.457" transform="translate(0 4.536) rotate(-45)"/></g></g></g></svg>