<svg xmlns="http://www.w3.org/2000/svg" width="52.108" height="37.619" viewBox="0 0 52.108 37.619"><defs><style>.a{fill:#18ae61;}</style></defs><g transform="translate(18.842)"><path class="a" d="M15.032,365.48a7.213,7.213,0,0,1,7.212-7.212h0a7.21,7.21,0,0,1,7.212,7.212h0a7.21,7.21,0,0,1-7.212,7.212h0a7.21,7.21,0,0,1-7.212-7.212Zm1.818,0a5.4,5.4,0,0,0,5.394,5.394h0a5.4,5.4,0,0,0,5.394-5.394h0a5.4,5.4,0,0,0-5.394-5.394h0a5.4,5.4,0,0,0-5.394,5.394Z" transform="translate(-15.032 -358.268)"/></g><g transform="translate(0 23.194)"><path class="a" d="M11.85,369.4a7.214,7.214,0,0,1,7.212-7.212h0A7.215,7.215,0,0,1,26.28,369.4h0a7.215,7.215,0,0,1-7.218,7.212h0A7.214,7.214,0,0,1,11.85,369.4Zm1.824,0a5.4,5.4,0,0,0,5.388,5.394h0a5.4,5.4,0,0,0,5.394-5.394h0A5.4,5.4,0,0,0,19.062,364h0a5.4,5.4,0,0,0-5.388,5.394Z" transform="translate(-11.85 -362.185)"/><g transform="translate(18.842)"><path class="a" d="M15.032,369.4a7.214,7.214,0,0,1,7.212-7.212h0a7.21,7.21,0,0,1,7.212,7.212h0a7.21,7.21,0,0,1-7.212,7.212h0a7.214,7.214,0,0,1-7.212-7.212Zm1.818,0a5.4,5.4,0,0,0,5.394,5.394h0a5.4,5.4,0,0,0,5.394-5.394h0A5.4,5.4,0,0,0,22.244,364h0A5.4,5.4,0,0,0,16.85,369.4Z" transform="translate(-15.032 -362.185)"/></g><g transform="translate(37.678)"><path class="a" d="M18.213,369.4a7.219,7.219,0,0,1,7.218-7.212h0a7.21,7.21,0,0,1,7.212,7.212h0a7.21,7.21,0,0,1-7.212,7.212h0a7.219,7.219,0,0,1-7.218-7.212Zm1.824,0a5.4,5.4,0,0,0,5.394,5.394h0A5.4,5.4,0,0,0,30.82,369.4h0A5.4,5.4,0,0,0,25.431,364h0a5.4,5.4,0,0,0-5.394,5.394Z" transform="translate(-18.213 -362.185)"/></g></g><g transform="translate(29.316 11.699)"><path class="a" d="M16.8,361.411l1.4-1.167,11.11,13.3-1.4,1.167L16.8,361.411Z" transform="translate(-16.801 -360.244)"/></g><g transform="translate(10.412 11.454)"><path class="a" d="M13.608,373.586,24.783,360.2l1.4,1.165L15.006,374.753l-1.4-1.167Z" transform="translate(-13.608 -360.202)"/></g><g transform="translate(25.144 13.355)"><path class="a" d="M16.1,371.227v-10.7h1.82v10.7Z" transform="translate(-16.096 -360.523)"/></g></svg>