<svg xmlns="http://www.w3.org/2000/svg" width="27.205" height="42.023" viewBox="0 0 27.205 42.023"><defs><style>.a{fill:#18ae61;}</style></defs><g transform="translate(0 0)"><path class="a" d="M61.994,400.026V358H89.2v42.023Zm26.265-.94v0Zm-24.391-.94h23.45V359.877H63.868v38.268Z" transform="translate(-61.994 -358.003)"/><g transform="translate(0.94 31.623)"><path class="a" d="M62.148,365.06v-1.878H87.473v1.878Z" transform="translate(-62.148 -363.182)"/></g><g transform="translate(10.513 33.89)"><path class="a" d="M63.716,366.65a3.094,3.094,0,0,1,3.089-3.1h0a3.1,3.1,0,0,1,3.089,3.1h0a3.093,3.093,0,0,1-3.089,3.089h0a3.089,3.089,0,0,1-3.089-3.089Zm1.874,0a1.213,1.213,0,0,0,1.215,1.209h0a1.212,1.212,0,0,0,1.209-1.209h0a1.213,1.213,0,0,0-1.209-1.215h0a1.214,1.214,0,0,0-1.215,1.215Z" transform="translate(-63.716 -363.554)"/></g></g></svg>