<svg xmlns="http://www.w3.org/2000/svg" width="14" height="14" viewBox="0 0 14 14"><defs><style>.a,.b{fill:#fff;}.a{fill-rule:evenodd;}</style></defs><path class="a" d="M7,0a7,7,0,1,0,7,7A7,7,0,0,0,7,0ZM5.461,3.289c.4-.018.525-.023,1.539-.023H7c1.014,0,1.141,0,1.539.023a2.749,2.749,0,0,1,.907.173,1.91,1.91,0,0,1,1.092,1.092,2.766,2.766,0,0,1,.173.906c.018.4.023.525.023,1.539s0,1.141-.023,1.539a2.767,2.767,0,0,1-.173.906,1.913,1.913,0,0,1-1.092,1.092,2.744,2.744,0,0,1-.907.173c-.4.018-.525.023-1.539.023s-1.141,0-1.539-.023a2.742,2.742,0,0,1-.906-.173A1.911,1.911,0,0,1,3.463,9.445a2.744,2.744,0,0,1-.173-.906c-.018-.4-.023-.525-.023-1.539s0-1.141.022-1.539a2.727,2.727,0,0,1,.173-.906A1.91,1.91,0,0,1,4.555,3.463,2.74,2.74,0,0,1,5.461,3.289Z"/><path class="a" d="M16.233,13.5h.335c1,0,1.115,0,1.509.021a2.067,2.067,0,0,1,.693.129,1.237,1.237,0,0,1,.708.709,2.063,2.063,0,0,1,.129.693c.018.394.022.512.022,1.508s0,1.115-.022,1.508a2.065,2.065,0,0,1-.129.693,1.238,1.238,0,0,1-.708.708,2.059,2.059,0,0,1-.693.129c-.394.018-.512.022-1.509.022s-1.115,0-1.509-.022a2.071,2.071,0,0,1-.693-.129,1.237,1.237,0,0,1-.709-.708,2.063,2.063,0,0,1-.129-.693c-.018-.394-.021-.512-.021-1.509s0-1.115.021-1.508a2.067,2.067,0,0,1,.129-.693,1.237,1.237,0,0,1,.709-.709,2.063,2.063,0,0,1,.693-.129c.344-.016.478-.02,1.174-.021Zm2.328.62a.448.448,0,1,0,.448.448.448.448,0,0,0-.448-.448Zm-3.91,2.441a1.917,1.917,0,1,1,1.917,1.917A1.917,1.917,0,0,1,14.651,16.565Z" transform="translate(-9.568 -9.565)"/><path class="b" d="M20.979,19.733a1.244,1.244,0,1,1-1.244,1.244A1.244,1.244,0,0,1,20.979,19.733Z" transform="translate(-13.979 -13.978)"/></svg>