<svg xmlns="http://www.w3.org/2000/svg" width="103.206" height="20.236" viewBox="0 0 103.206 20.236"><defs><style>.a{fill:#161616;}</style></defs><g transform="translate(988.112 -2366.425)"><g transform="translate(-988.112 2366.425)"><path class="a" d="M554.239,5136.459v-20.236h52.155c.021,4.048.055,8.1.059,12.143,0,2.7-.038,5.4-.059,8.094Zm51.072-1.162c.038-.351.072-.52.072-.688,0-5.456-.015-10.913.022-16.369.006-.954-.546-.855-1.143-.855q-23.929,0-47.857-.019c-.932,0-1.168.274-1.161,1.178.04,5.108.019,10.218.02,15.327,0,1.425,0,1.426,1.393,1.426h48.654Z" transform="translate(-503.247 -5116.223)"/><path class="a" d="M-632.194,5322.621c1.068,0,2.073-.035,3.073.025a.946.946,0,0,1,.682.538,1.319,1.319,0,0,0,1.389,1.027c2.015.021,4.031.027,6.046,0,.8-.011,1.3-.383,1.276-1.29s-.6-1.042-1.335-1.074q-4.008-.177-8.015-.393c-1.972-.1-2.825-.917-3.04-2.855-.019-.172-.047-.345-.058-.517-.218-3.426.8-4.612,4.206-4.7,2.739-.066,5.485-.068,8.223.042,2.633.1,3.717,1.535,3.328,4.176-.189.018-.391.052-.594.053-1,.006-2.007,0-3.078,0-.1-1.269-.973-1.421-1.939-1.419-1.564,0-3.129-.026-4.691.04a2.605,2.605,0,0,0-1.4.509,1.075,1.075,0,0,0-.072,1.032,1.4,1.4,0,0,0,.97.577c2.564.174,5.132.292,7.7.416,2.719.13,3.647,1.094,3.653,3.824,0,.382,0,.765-.011,1.146-.077,1.952-.909,3.125-2.841,3.21a94.649,94.649,0,0,1-10.508-.032C-631.83,5326.79-632.54,5325.523-632.194,5322.621Z" transform="translate(663.288 -5310.023)"/><path class="a" d="M-2075.915,5329.81c2.078.747,2.319,1.375,2.008,5.132h-3.745c-.059-.715-.1-1.433-.18-2.146a1.237,1.237,0,0,0-1.317-1.211c-2.392-.023-4.784-.008-7.323-.008v3.417h-3.906q0-6.7,0-13.394c.056-.038.113-.109.169-.109,4.513.013,9.028-.022,13.539.077,1.906.042,2.621.846,2.879,2.751a8.809,8.809,0,0,1,.107,1.969C-2073.889,5328.491-2073.749,5328.852-2075.915,5329.81Zm-6.545-1.517v-.013c1.078,0,2.156.03,3.232-.008,1.187-.042,1.515-.446,1.523-1.741.008-1.347-.251-1.706-1.475-1.758-1.6-.067-3.2-.068-4.794-.072-2.691-.007-2.691,0-2.539,2.712a.927.927,0,0,1,0,.1c-.033.582.245.8.819.784C-2084.615,5328.274-2083.537,5328.293-2082.46,5328.293Z" transform="translate(2096.839 -5318.035)"/><path class="a" d="M-2469.983,5323.272v13.45h-3.991v-13.45Z" transform="translate(2473.974 -5319.786)"/><path class="a" d="M-992.078,5324.764c0-1.944.03-3.888-.015-5.831-.017-.743.243-.981.958-.933a15.538,15.538,0,0,0,2.185,0c.753-.055,1.049.184,1.042.983q-.048,5.83,0,11.66c.007.794-.279,1.046-1.038.986a13.037,13.037,0,0,0-2.08,0c-.8.066-1.1-.18-1.074-1.036C-992.036,5328.652-992.079,5326.708-992.078,5324.764Z" transform="translate(1017.053 -5314.595)"/><path class="a" d="M2469.925,5353.462c.808-2.391,1.638-4.774,2.412-7.176a1.1,1.1,0,0,1,1.249-.933c1.04.047,2.084.033,3.125-.008.781-.031,1.005.3,1,1.054q-.047,5.366,0,10.732c0,.708-.2.985-.944.969-2.054-.045-1.71.086-1.711-1.631,0-2.222.039-4.445.049-6.668,0-.431-.051-.862-.078-1.293l-.285-.09a5.114,5.114,0,0,0-.52.843c-1.011,2.656-2.041,5.305-2.977,7.988-.276.792-.746.854-1.419.85-.69,0-1.215,0-1.509-.864-.908-2.656-1.923-5.275-2.917-7.9a5.972,5.972,0,0,0-.563-.938l-.289.108v9.483h-2.632c-.024-.334-.068-.667-.068-1-.005-3.474.024-6.947-.022-10.42-.012-.887.2-1.276,1.151-1.207a20.9,20.9,0,0,0,2.916,0c.813-.054,1.139.283,1.371,1.035.632,2.052,1.357,4.075,2.049,6.108.108.318.24.627.361.94Z" transform="translate(-2378.708 -5341.486)"/><path class="a" d="M1597.641,5358.939v-12.625a6.686,6.686,0,0,1,.84-.1c3.093.021,6.186.042,9.278.085,1.916.027,2.573.572,2.781,2.476a25.461,25.461,0,0,1,0,3.109,2.046,2.046,0,0,1-1.66,2.064c2.527,1.046,1.315,3.132,1.723,4.984-.977,0-1.8.045-2.609-.034-.192-.019-.472-.445-.492-.7-.205-2.545-.192-2.546-2.722-2.545h-4.119c0,.9-.018,1.723.007,2.54.016.527-.177.77-.722.754C1599.19,5358.923,1598.439,5358.939,1597.641,5358.939Zm3.066-6.351c2.026,0,3.928.031,5.829-.013.961-.022,1.024-.847,1.034-1.525.01-.66.084-1.615-.828-1.668-1.99-.114-3.991-.035-6.035-.035Z" transform="translate(-1529.08 -5342.34)"/><path class="a" d="M790.724,5344.871h-2.8c.088-1.322-.766-1.47-1.766-1.453-1.041.017-2.083.02-3.124,0a1.284,1.284,0,0,0-1.453,1.3c-.076,1.417-.07,2.843-.009,4.262a1.243,1.243,0,0,0,1.293,1.242c.9.047,1.8.11,2.7.1,2.019-.021,2.019-.037,2.64-1.856.031-.017.066-.052.091-.046.836.2,2.243-.778,2.444.581.315,2.128-.074,3.922-1.971,4.046a59.4,59.4,0,0,1-7.568.047c-1.658-.1-2.273-.807-2.392-2.617a51.937,51.937,0,0,1,0-7.176c.153-2.083.9-2.729,3-2.854s4.235-.09,6.351-.025a2.262,2.262,0,0,1,2.353,2.188C790.628,5343.32,790.655,5344.04,790.724,5344.871Z" transform="translate(-723.923 -5336.591)"/></g></g></svg>