<svg xmlns="http://www.w3.org/2000/svg" width="133.227" height="24.161" viewBox="0 0 133.227 24.161"><defs><style>.a{fill:#161616;fill-rule:evenodd;}</style></defs><g transform="translate(0 0)"><g transform="translate(0 0)"><path class="a" d="M48.341,11.388a.316.316,0,0,1,.337-.337c.317,0,.8.337,1.066,1.01-.1,0-.242.029-.34.029C48.826,12.09,48.341,11.816,48.341,11.388Zm-34.929,0a.314.314,0,0,1,.338-.337c.309,0,.768.337,1.035,1.01C13.894,12.061,13.412,11.868,13.412,11.388Zm6.737-3.479c0-3.6.7-4.155.919-4.155.387,0,.433.242.433,1.623a8.265,8.265,0,0,1-1.353,4.3ZM44.673,11.46a4.166,4.166,0,0,0-.752,2.461c0,2.03,1.157,3.967,3.406,3.967,2.174,0,3.7-1.718,3.7-4.113a5,5,0,0,0-.072-1.08,5.913,5.913,0,0,0,1.281-.826,1.317,1.317,0,0,1,.677-.339c.217,0,.312.17.312.483v4.739c0,.772.244,1.136.846,1.136a1.314,1.314,0,0,0,1.16-.847c.8-1.667,1.957-3.889,2.462-4.733.122-.194.22-.342.29-.342.1,0,.147.074.147.386v3.773c0,1.061.485,1.763,1.544,1.763,1.114,0,1.666-1.067,2.64-2.709a.555.555,0,0,0,.067-.239.355.355,0,0,0-.383-.341c-.219,0-.34.219-1.063,1.014-.147.151-.289.361-.557.361-.1,0-.17-.116-.17-.264V11.48c0-1.136-.508-1.594-1.16-1.594a1.635,1.635,0,0,0-1.426.894,42.058,42.058,0,0,0-2.125,3.793c-.052.1-.121.245-.168.245s-.072-.075-.072-.245V11.48c0-.892-.242-1.594-1.186-1.594-.991,0-1.5.678-2.222,1.184a6.928,6.928,0,0,1-1.181.726,2.512,2.512,0,0,0-2.127-1.838,1.216,1.216,0,0,0-1.282,1.261,1.663,1.663,0,0,0,1.135,1.592,2.985,2.985,0,0,0,1.186.172,1.563,1.563,0,0,0,.383-.028,4.6,4.6,0,0,1,.028.848,2.15,2.15,0,0,1-2,2.366c-1.356,0-2.15-1.3-2.15-2.8a4.167,4.167,0,0,1,.888-2.728c.223-.243.389-.391.389-.614,0-.113-.166-.141-.313-.141a6.209,6.209,0,0,0-2.631.773,15.774,15.774,0,0,0-2.9,2.081c-.434-.969-.965-1.815-1.233-2.469-.1-.266-.166-.574-.36-.574-.171,0-.246.169-.364.5a30.07,30.07,0,0,1-3.261,5.537c-.048.069-.118.146-.141.146-.052,0-.08-.024-.08-.171V11.48c0-1.136-.458-1.594-1.082-1.594a1.606,1.606,0,0,0-1.426.894c-.8,1.211-1.767,2.975-2.224,3.842-.074.149-.147.2-.171.2s-.044-.1-.044-.245V11.48c0-1.136-.461-1.594-1.09-1.594a1.582,1.582,0,0,0-1.45.894c-1.013,1.718-2.7,4.351-3.017,4.783a.4.4,0,0,1-.146.147c-.048,0-.075-.047-.075-.167V11.48c0-1.136-.458-1.594-1.083-1.594-.871,0-1.352.8-1.669,1.306-.437.7-1.014,1.645-1.472,2.516a4.194,4.194,0,0,1-.68,1.11c-.046,0-.046-.219-.046-.629V10.952a9.037,9.037,0,0,0,2.463-6.041c0-1.307-.577-2.029-1.469-2.029-1.671,0-2.948,2.61-2.948,5.7V11.1a6.631,6.631,0,0,1-2.4.9,2.619,2.619,0,0,0-2.2-2.033,1.217,1.217,0,0,0-1.281,1.261c0,1.279,1.257,1.81,2.365,1.81H15a4.165,4.165,0,0,1,.047.774,2.149,2.149,0,0,1-2,2.366c-1.352,0-2.151-1.3-2.151-2.8a4.144,4.144,0,0,1,.891-2.728,1.266,1.266,0,0,0,.39-.614c0-.113-.171-.141-.317-.141-.917,0-2.944,1.237-5.362,3.653a52.269,52.269,0,0,1-.457-5.657,21.084,21.084,0,0,1,.5-4.3,4.905,4.905,0,0,0,.079-.65c0-.195-.1-.294-.363-.294C4.3,2.639,0,5.757,0,10.42c0,3.307,1.211,4.9,3.308,6.956a13.551,13.551,0,0,0-2.3,6.669c0,1.568.366,2.755,1.522,2.755,2.417,0,4.227-5.023,4.227-8.746,0-1.11-.044-2.223-.139-3.332a16.172,16.172,0,0,1,2.6-2.345,5.782,5.782,0,0,0-.241,1.544c0,2.03,1.162,3.967,3.406,3.967a3.807,3.807,0,0,0,3.7-4.113c0-.309-.025-.578-.046-.867A6.311,6.311,0,0,0,18.2,12.16v4.856a.8.8,0,0,0,.843.871c.559,0,.848-.389,1.255-1.278.342-.728,1.257-2.394,1.812-3.388.438-.775.679-1.279.874-1.279.045,0,.1.118.1.409v4.133c0,1.112.58,1.4,1.082,1.4a1.342,1.342,0,0,0,1.114-.7c1.258-1.79,2.588-3.913,3.116-4.834.1-.165.218-.29.315-.29s.143.052.143.362v4.328c0,.772.242,1.136.848,1.136a1.276,1.276,0,0,0,1.13-.847c.8-1.667,1.983-3.867,2.493-4.733.118-.194.24-.364.312-.364.1,0,.123.118.123.434v4.107c0,1.112.58,1.4,1.091,1.4.671,0,1.11-.486,1.545-1.039.792-1.044,1.953-2.9,2.655-4.086a10.435,10.435,0,0,1,.727,1.354,4,4,0,0,0-1.162,2.34,1.33,1.33,0,0,0,1.281,1.43A2.357,2.357,0,0,0,42.01,15.35a5.175,5.175,0,0,0-.382-1.762,8.331,8.331,0,0,1,3.045-2.128ZM4.879,16.727a25.405,25.405,0,0,1,.365,3.527c0,2.316-.771,5.023-2.1,5-.513,0-.945-.513-.966-1.4a11.467,11.467,0,0,1,2.7-7.125ZM40.151,15.08a3.219,3.219,0,0,1,.22,1.09c0,.387-.146.774-.413.774-.19,0-.384-.218-.384-.557A2.86,2.86,0,0,1,40.151,15.08ZM5.751,3.557c0,.147-.338.822-.772,2.031a15.2,15.2,0,0,0-.9,5.191,35.006,35.006,0,0,0,.584,4.689l-.774,1.043A8.723,8.723,0,0,1,1.887,10.42c0-4.106,2.488-6.955,3.766-6.955.076,0,.1.021.1.091Z" transform="translate(-0.001 -2.639)"/><path class="a" d="M243.843,11.388a.312.312,0,0,1,.337-.337c.312,0,.8.337,1.061,1.01-.094,0-.239.029-.34.029C244.325,12.09,243.843,11.816,243.843,11.388Zm-34.936,0a.316.316,0,0,1,.338-.337c.314,0,.778.337,1.038,1.01C209.39,12.061,208.907,11.868,208.907,11.388Zm6.741-3.479c0-3.6.7-4.155.917-4.155.385,0,.434.242.434,1.623a8.281,8.281,0,0,1-1.352,4.3Zm-15.267,8.818a26.667,26.667,0,0,1,.363,3.527c0,2.316-.772,5.023-2.1,5-.506,0-.941-.513-.965-1.4a11.449,11.449,0,0,1,2.706-7.125Zm35.272-1.647a3.2,3.2,0,0,1,.216,1.09c0,.387-.145.774-.41.774-.191,0-.39-.218-.39-.557a2.842,2.842,0,0,1,.584-1.307ZM201.246,3.557c0,.147-.335.822-.773,2.031a15.3,15.3,0,0,0-.894,5.191,35.63,35.63,0,0,0,.586,4.689l-.775,1.043a8.741,8.741,0,0,1-2.007-6.091c0-4.106,2.493-6.955,3.771-6.955.07,0,.091.021.091.091Zm-4.028,12.08a14.407,14.407,0,0,0,1.593,1.739,13.472,13.472,0,0,0-2.3,6.669c0,1.568.365,2.755,1.525,2.755,2.413,0,4.223-5.023,4.223-8.746,0-1.11-.047-2.223-.144-3.332a16.026,16.026,0,0,1,2.61-2.345,5.721,5.721,0,0,0-.246,1.544c0,2.03,1.161,3.967,3.41,3.967a3.808,3.808,0,0,0,3.694-4.113c0-.309-.022-.578-.049-.867a6.263,6.263,0,0,0,2.152-.747v4.856a.8.8,0,0,0,.84.871c.563,0,.853-.389,1.261-1.278.337-.728,1.257-2.394,1.814-3.388.433-.775.675-1.279.873-1.279.045,0,.091.118.091.409v4.133c0,1.112.578,1.4,1.086,1.4a1.352,1.352,0,0,0,1.116-.7c1.252-1.79,2.583-3.913,3.113-4.834.1-.165.219-.29.313-.29s.147.052.147.362v4.328c0,.772.239,1.136.842,1.136a1.286,1.286,0,0,0,1.138-.847c.8-1.667,1.981-3.867,2.486-4.733.123-.194.243-.364.319-.364.094,0,.121.118.121.434v4.107c0,1.112.575,1.4,1.081,1.4.681,0,1.116-.486,1.548-1.039.8-1.044,1.959-2.9,2.659-4.086a10.77,10.77,0,0,1,.727,1.354,3.966,3.966,0,0,0-1.16,2.34,1.326,1.326,0,0,0,1.278,1.43,2.357,2.357,0,0,0,2.123-2.538,5.14,5.14,0,0,0-.385-1.762,8.4,8.4,0,0,1,3.044-2.128,4.2,4.2,0,0,0-.749,2.461c0,2.03,1.161,3.967,3.408,3.967,2.174,0,3.692-1.718,3.692-4.113a5.113,5.113,0,0,0-.068-1.08,6.077,6.077,0,0,0,1.282-.826,1.309,1.309,0,0,1,.671-.339c.219,0,.321.17.321.483v4.739c0,.772.238,1.136.842,1.136a1.32,1.32,0,0,0,1.161-.847c.792-1.667,1.954-3.889,2.459-4.733.121-.194.219-.342.292-.342.1,0,.146.074.146.386v3.773c0,1.061.479,1.763,1.545,1.763,1.115,0,1.669-1.067,2.637-2.709a.575.575,0,0,0,.068-.239.359.359,0,0,0-.385-.341c-.216,0-.339.219-1.062,1.014-.143.151-.29.361-.555.361-.1,0-.168-.116-.168-.264V11.48c0-1.136-.513-1.594-1.165-1.594a1.635,1.635,0,0,0-1.422.894,41.1,41.1,0,0,0-2.122,3.793c-.052.1-.123.245-.174.245s-.07-.075-.07-.245V11.48c0-.892-.242-1.594-1.184-1.594-.993,0-1.5.678-2.221,1.184a6.943,6.943,0,0,1-1.188.726,2.5,2.5,0,0,0-2.121-1.838,1.213,1.213,0,0,0-1.28,1.261,1.662,1.662,0,0,0,1.13,1.592,3.01,3.01,0,0,0,1.191.172,1.639,1.639,0,0,0,.385-.028,5.04,5.04,0,0,1,.022.848,2.152,2.152,0,0,1-2.008,2.366c-1.352,0-2.146-1.3-2.146-2.8a4.158,4.158,0,0,1,.889-2.728c.22-.243.391-.391.391-.614,0-.113-.171-.141-.315-.141a6.251,6.251,0,0,0-2.633.773,15.714,15.714,0,0,0-2.9,2.081c-.436-.969-.965-1.815-1.234-2.469-.1-.266-.165-.574-.366-.574-.167,0-.241.169-.36.5a30.222,30.222,0,0,1-3.261,5.537c-.049.069-.121.146-.147.146-.045,0-.072-.024-.072-.171V11.48c0-1.136-.456-1.594-1.09-1.594a1.611,1.611,0,0,0-1.424.894c-.8,1.211-1.762,2.975-2.221,3.842-.071.149-.142.2-.165.2s-.052-.1-.052-.245V11.48c0-1.136-.456-1.594-1.084-1.594a1.576,1.576,0,0,0-1.45.894c-1.018,1.718-2.706,4.351-3.022,4.783a.338.338,0,0,1-.146.147c-.043,0-.071-.047-.071-.167V11.48c0-1.136-.457-1.594-1.088-1.594-.872,0-1.352.8-1.668,1.306-.434.7-1.011,1.645-1.472,2.516a4.171,4.171,0,0,1-.675,1.11c-.049,0-.049-.219-.049-.629V10.952a9.015,9.015,0,0,0,2.463-6.041c0-1.307-.578-2.029-1.475-2.029-1.664,0-2.943,2.61-2.943,5.7V11.1a6.638,6.638,0,0,1-2.4.9,2.615,2.615,0,0,0-2.191-2.033,1.215,1.215,0,0,0-1.283,1.261c0,1.279,1.252,1.81,2.366,1.81h.316a4.41,4.41,0,0,1,.044.774,2.148,2.148,0,0,1-2,2.366c-1.354,0-2.147-1.3-2.147-2.8a4.167,4.167,0,0,1,.889-2.728,1.277,1.277,0,0,0,.387-.614c0-.113-.171-.141-.314-.141-.919,0-2.947,1.237-5.366,3.653a52.678,52.678,0,0,1-.457-5.657,20.97,20.97,0,0,1,.507-4.3,4.851,4.851,0,0,0,.075-.65c0-.195-.1-.294-.36-.294-1.958,0-6.258,3.118-6.258,7.781a8.068,8.068,0,0,0,1.135,4.444,3.675,3.675,0,0,0-.68-.047,8.864,8.864,0,0,0-1.949.29v-.486a5.592,5.592,0,0,0-.681-2.946.275.275,0,0,0-.191-.071,1.564,1.564,0,0,0-.7.24c-.293.146-.583.292-.583.386a.353.353,0,0,0,.073.215,3.6,3.6,0,0,1,.8,1.865,3.944,3.944,0,0,0-2.989-1.188c-1.452,0-1.889.65-1.889,1.307,0,1.256,1.667,1.884,3.772,1.884a5.836,5.836,0,0,0,1.251-.171c0,.387.049.73.049,1.018,0,.411.07.727.339.727.409,0,.653-.825.7-2.006a9.222,9.222,0,0,1,2.178-.361,5.972,5.972,0,0,1,1.086.118ZM192.46,15.4a8.041,8.041,0,0,1-1.085.048c-.945,0-1.641-.364-1.641-.891,0-.338.167-.534.65-.534.775,0,1.4.534,2.077,1.377Z" transform="translate(-124.647 -2.639)"/></g></g></svg>