<svg xmlns="http://www.w3.org/2000/svg" width="14" height="14" viewBox="0 0 14 14"><defs><style>.a{fill:#fff;fill-rule:evenodd;}</style></defs><path class="a" d="M7,0a7,7,0,1,0,7,7A7,7,0,0,0,7,0ZM3.36,5.8H4.947v4.766H3.36ZM5.051,4.323A.824.824,0,0,0,4.164,3.5a.826.826,0,1,0-.021,1.647h.01A.827.827,0,0,0,5.051,4.323Zm3.79,1.362c1.044,0,1.827.681,1.827,2.145v2.733H9.081V8.014c0-.64-.23-1.078-.8-1.078a.868.868,0,0,0-.814.579,1.083,1.083,0,0,0-.052.387v2.662H5.825s.021-4.319,0-4.766H7.411v.675A1.575,1.575,0,0,1,8.841,5.686Z"/></svg>