<svg xmlns="http://www.w3.org/2000/svg" width="123.567" height="26.555" viewBox="0 0 123.567 26.555"><defs><style>.a{fill:#161616;fill-rule:evenodd;}</style></defs><g transform="translate(14.067)"><path class="a" d="M515.067,221.291a3.011,3.011,0,0,0,.206-.929h2.577v.1c-.309.1-.413.515-.413.825l.929,7.216c.1.618.1,1.031.722,1.442h-2.782c.514-.206.618-.618.618-1.134L516,221.807l-3.195,8.349a3.842,3.842,0,0,1-1.34-1.752l-2.784-6.6-.824,6.286c-.1.928-.207,1.545.516,1.855H506a2.888,2.888,0,0,0,.825-2.063l.823-6.081c0-.413.207-1.031-.516-1.34v-.1h2.577a1.478,1.478,0,0,0,.207.721l2.782,6.391Z" transform="translate(-505.999 -220.154)"/><path class="a" d="M657.71,218.833a5.161,5.161,0,0,0-5.461,5.05,5.042,5.042,0,0,0,5.256,5.051,5.213,5.213,0,0,0,5.359-5.154A5,5,0,0,0,657.71,218.833Zm-.1,9.07c-2.269,0-3.711-2.164-3.711-4.226a3.6,3.6,0,0,1,3.711-3.814c2.267,0,3.608,2.061,3.608,4.226A3.575,3.575,0,0,1,657.609,227.9Z" transform="translate(-632.359 -218.83)"/><path class="a" d="M784.85,223.054c.413-1.031.928-2.267,0-2.577v-.1h2.164l-3.814,10.1c-1.031-.721-1.442-.824-1.855-1.957l-2.164-5.978a5.043,5.043,0,0,0-1.133-2.061v-.1h2.061v.206a6.671,6.671,0,0,0,.413,1.34l2.371,6.389Z" transform="translate(-741.05 -220.164)"/><path class="a" d="M891.556,229.96h2.989c-.824-.412-1.031-1.238-1.443-2.063l-2.989-7.523h-2.267v.1c.619.207.413.826.206,1.34l-2.472,6.08c-.309.824-.516,1.651-1.444,2.062h2.679c-.619-.206-.516-.721-.206-1.545l.721-2.063v0h3.712l.721,2.062C892.173,229.445,892.276,229.65,891.556,229.96Zm-3.814-4.64,1.443-3.709,1.34,3.709Z" transform="translate(-832.708 -220.164)"/><path class="a" d="M1015.8,220.374H1012.2v.1c.721.206.618,1.237.618,1.958V227.9c0,.824.1,1.548-.618,2.062h3.5c3.3,0,5.461-1.958,5.461-4.844S1019.1,220.374,1015.8,220.374Zm-.411,8.553a3.181,3.181,0,0,1-1.031-.1v-7.214a5.172,5.172,0,0,1,1.237-.206c2.472,0,3.916,1.34,3.916,3.916C1019.515,227.8,1017.557,228.927,1015.393,228.927Z" transform="translate(-943.355 -220.164)"/><path class="a" d="M1134.36,218.833a5.063,5.063,0,1,0-.1,10.1,5.214,5.214,0,0,0,5.359-5.154A5.024,5.024,0,0,0,1134.36,218.833Zm-.1,9.07c-2.268,0-3.711-2.164-3.711-4.226a3.6,3.6,0,0,1,3.711-3.814c2.37,0,3.711,2.061,3.711,4.226A3.6,3.6,0,0,1,1134.256,227.9Z" transform="translate(-1044.183 -218.83)"/></g><path class="a" d="M410.909,340.256h-.1a3.338,3.338,0,0,0-2.578-.928,3.793,3.793,0,0,0-4.019,3.813,4.157,4.157,0,0,0,4.122,4.225,6.645,6.645,0,0,0,2.061-.309v-2.163c0-.62,0-1.341-.618-1.651h2.163v4.02c0,.207-.1.515,0,.618a13.048,13.048,0,0,1-3.5.517c-3.709,0-5.874-2.062-5.874-5.051,0-3.09,2.472-5.05,5.977-5.05a18.246,18.246,0,0,1,2.369.207Zm11.955-1.752c1.958,0,2.99,1.031,2.99,2.37a2.847,2.847,0,0,1-2.269,2.576l2.063,2.679a10.815,10.815,0,0,0,2.372,1.958h-1.342c-.824,0-1.238-.1-1.648-.721l-1.855-2.165-1.341-2.061c1.238-.206,2.579-.721,2.579-2.061a1.775,1.775,0,0,0-1.958-1.648c-.309,0-.62.1-.927.1v6.6c0,.621-.1,1.752.618,1.958h-2.784c.721-.206.618-1.339.618-1.958v-5.566c0-.618.1-1.751-.618-1.958v-.1Zm21.438,4.74a5.242,5.242,0,0,1-5.462,5.154,5.044,5.044,0,0,1-5.259-5.051,5.162,5.162,0,0,1,5.462-5.05,5.025,5.025,0,0,1,5.259,4.946Zm-9.068-.1c0,2.061,1.442,4.225,3.708,4.225a3.517,3.517,0,0,0,3.607-3.814c0-2.164-1.339-4.226-3.607-4.226a3.6,3.6,0,0,0-3.708,3.814Zm22.98,4.019a3.529,3.529,0,0,1-2.784,1.238,3.49,3.49,0,0,1-2.679-1.031,4.076,4.076,0,0,1-.721-2.886v-3.916c0-.618.1-1.752-.618-1.958v-.1H454.2v.1c-.827.206-.724,1.34-.724,1.958v3.916c0,1.958.827,2.887,2.372,2.887a2.9,2.9,0,0,0,2.163-1.031,2.06,2.06,0,0,0,.207-1.341v-4.431c0-.618.1-1.752-.618-1.958v-.1h2.783v.1c-.724.206-.62,1.34-.62,1.958v5.566c0,.62-.1,1.648.62,1.958h-2.165Zm13.4-8.657c1.855,0,3.3.929,3.3,2.577a3.009,3.009,0,0,1-3.2,2.783,3.042,3.042,0,0,1-1.031-.207c1.238-.1,2.579-.927,2.579-2.267s-.928-1.854-2.062-1.854c-.413,0-.721.1-1.031.1v6.6c0,.825,0,1.445.721,1.855H468c.724-.207.62-1.339.62-1.958v-5.565c0-.618.1-1.65-.62-1.958v-.1Zm16.179,2.061c0-.618.1-1.752-.618-1.958v-.1h2.783v.1c-.721.206-.617,1.34-.617,1.958v5.566c0,.62-.1,1.648.617,1.958h-2.783c.721-.206.618-1.339.618-1.958Zm11.442,5.667c0,.824,0,1.445.824,1.855h-2.575c.721-.412.721-1.031.721-1.855v-5.771c0-.826,0-1.443-.721-1.855v-.1h2.163a.536.536,0,0,0,.207.413l.206.309,5.256,6.7v-5.463c0-.826.1-1.443-.721-1.855v-.1h2.576v.1c-.721.413-.721,1.031-.721,1.855v8.14a3.865,3.865,0,0,1-2.166-1.648l-5.048-6.39Zm22.673-5.874a5.189,5.189,0,0,0-2.783-.826,3.359,3.359,0,0,0-3.4,3.608,3.828,3.828,0,0,0,3.711,4.019,6.057,6.057,0,0,0,3.09-.927h.1l-.721,1.648a4.322,4.322,0,0,1-2.268.517c-3.4,0-5.566-1.958-5.566-5.051a4.843,4.843,0,0,1,5.154-5.05,13.06,13.06,0,0,1,2.679.413v1.648Zm3.3,7.936a.925.925,0,0,1-.928-.928.84.84,0,0,1,.928-.824.906.906,0,0,1,.927.824.923.923,0,0,1-.927.928Zm0,0" transform="translate(-402.563 -322.047)"/></svg>