<svg xmlns="http://www.w3.org/2000/svg" xmlns:xlink="http://www.w3.org/1999/xlink" width="72.304" height="91.436" viewBox="0 0 72.304 91.436"><defs><style>.a{fill:none;}.b{clip-path:url(#a);}.c{fill:url(#b);}.d{fill:#16304e;}.e{clip-path:url(#c);}.f{clip-path:url(#d);}.g{clip-path:url(#e);}</style><clipPath id="a"><path class="a" d="M19.841,40.6h0a18.467,18.467,0,0,1-7.585-1.646,20.554,20.554,0,0,1-6.322-4.435,21.076,21.076,0,0,1-4.328-6.468A19.629,19.629,0,0,1,0,20.3,21.466,21.466,0,0,1,5.133,6.781,19.241,19.241,0,0,1,11.42,1.908,19.763,19.763,0,0,1,20.07,0c4.381.056,6.7.942,6.7,2.562,0,1.794-4.4,2.57-6.643,2.57,0,0-.073,0-.2,0-.849,0-5.167-.087-6.752-1.8a.152.152,0,0,0-.11-.069.106.106,0,0,0-.047.012c-.071.039-.021.143-.021.144.431,1,2.191,1.842,3.644,2.2A34.456,34.456,0,0,0,11.77,13.7c-.134.283-.2.335-.283.335a.568.568,0,0,1-.189-.046,13.5,13.5,0,0,1-4.68-2.718.126.126,0,0,0-.076-.033.076.076,0,0,0-.05.019c-.06.055,0,.128,0,.129a11.348,11.348,0,0,0,4.5,3.352c.168.081.218.134.225.237a.542.542,0,0,1-.04.165,33.221,33.221,0,0,0-2.267,9.627l0,.051c-.009.132-.014.22-.079.263l-.143-.008A21.649,21.649,0,0,1,5.155,23.3a.112.112,0,0,0-.053-.015.085.085,0,0,0-.058.023.089.089,0,0,0-.026.065.114.114,0,0,0,.035.07,18.753,18.753,0,0,0,3.476,2.262.484.484,0,0,1,.3.478c0,.091-.015.871-.015,1.015a23.474,23.474,0,0,0,.734,5.955s.013.059.062.059l.014,0a.067.067,0,0,0,.056-.022.072.072,0,0,0,0-.064,42.146,42.146,0,0,1-.139-6.736s0-.117.062-.145a.076.076,0,0,1,.038-.01.383.383,0,0,1,.106.026,27.2,27.2,0,0,0,9.112,1.981c.535.045.618.135.639.687.005.3.134,7.369.134,7.7a.321.321,0,0,1-.331.357H19.3a42.356,42.356,0,0,1-6.1-.537.119.119,0,0,0-.03,0,.05.05,0,0,0-.051.029.053.053,0,0,0,.028.057c1.506.771,6.116,1.133,6.162,1.137.331.038.387.125.4.385,0,.024.123,2.363.137,2.545Zm.553,0h-.1l.148-2.5c.022-.308.093-.387.358-.4A28.446,28.446,0,0,0,29,36.346a1.925,1.925,0,0,1,.382-.088.027.027,0,0,1,.011,0,.051.051,0,0,1,.037.013.057.057,0,0,1,.013.042.934.934,0,0,1-.084.264,11.726,11.726,0,0,1-1.377,2.467A21.017,21.017,0,0,1,20.394,40.592Zm8.527-1.986h0a14.586,14.586,0,0,0,1.236-2.093A1.948,1.948,0,0,1,31,35.6a21.108,21.108,0,0,0,4.941-2.947A22.287,22.287,0,0,1,28.921,38.606Zm-8.093-1.668a.47.47,0,0,1-.27-.062c-.084-.086-.066-.324-.066-.327.085-2.747.135-5.249.154-7.647,0-.031,0-.06.006-.089.025-.394.033-.513.58-.55a28.624,28.624,0,0,0,8.758-1.556,1.264,1.264,0,0,1,.385-.086.267.267,0,0,1,.152.037c.168.11.16.589.16.594a29.188,29.188,0,0,1-.553,6.874c-.11.44-.17.682-.573.854a27.77,27.77,0,0,1-8.7,1.958ZM31.1,34.253a.035.035,0,0,1-.031-.013c-.015-.023,0-.067,0-.067a22.975,22.975,0,0,0,1.016-7.547c.01-.535.073-.768.7-1.094a18.931,18.931,0,0,0,4.481-3.1s.026-.028.046-.028.02.011.024.032A21.414,21.414,0,0,1,37.4,28.2a4.453,4.453,0,0,1-1.267,2.622,19.739,19.739,0,0,1-4.911,3.382l-.028.014A.235.235,0,0,1,31.1,34.253Zm7.406-6.383h0a20.614,20.614,0,0,0,.4-4.047c0-.012-.007-1.214-.123-2.561a2.328,2.328,0,0,1,.462-1.432A8.455,8.455,0,0,0,40.31,17a17.318,17.318,0,0,1,.233,2.841A16.141,16.141,0,0,1,38.506,27.87ZM18.9,27.025a28.379,28.379,0,0,1-9.05-1.511c-.168-.075-.225-.123-.2-.358a37.72,37.72,0,0,1,2.244-9.765c.064-.171.111-.189.176-.2a.886.886,0,0,1,.218.058,23.729,23.729,0,0,0,6.683,1.254.581.581,0,0,1,.58.659v.02c-.005.685-.05,6.764-.064,9.105.005.4-.006.5-.137.631C19.252,27.013,18.9,27.025,18.9,27.025Zm2.134-.035a.389.389,0,0,1-.266-.073.589.589,0,0,1-.087-.348c0-.375,0-.821,0-1.271v-.023c0-.449,0-.9,0-1.285,0-2.409-.02-4.342-.035-5.753q-.006-.587-.01-1.057a.583.583,0,0,1,.59-.653,23.593,23.593,0,0,0,6.6-1.13.97.97,0,0,1,.3-.076c.109,0,.176.059.3.426a43.394,43.394,0,0,1,1.974,8.39,1.753,1.753,0,0,1,.023.306c0,.369-.1.606-.611.8a28.311,28.311,0,0,1-8.708,1.742ZM32.1,24.119a.115.115,0,0,1-.078-.024c-.13-.109-.177-.632-.177-.637a35.57,35.57,0,0,0-2.076-8.192,1.011,1.011,0,0,1-.1-.353c0-.139.063-.258.379-.422a11.856,11.856,0,0,0,3.364-2.3c.12-.122.218-.186.283-.186h.015c.047,0,.136.065.245.246a27.732,27.732,0,0,1,2.817,7.1,2.975,2.975,0,0,1,.1.683,1.205,1.205,0,0,1-.455.94,22,22,0,0,1-3.877,2.967l-.016.009A1.036,1.036,0,0,1,32.1,24.119Zm6.208-5.686v0A23.8,23.8,0,0,0,35.1,11.02l-.046-.085a.711.711,0,0,1-.125-.359,1.684,1.684,0,0,1,.182-.638,6.013,6.013,0,0,0,.532-2.4,3.85,3.85,0,0,0-.047-.636,15.838,15.838,0,0,1,3.971,7.174,2.237,2.237,0,0,1,.021.292,9.082,9.082,0,0,1-1.279,4.06ZM19,15.376a24.9,24.9,0,0,1-6.494-.988.239.239,0,0,1-.12-.086s-.055-.088.068-.353a35.92,35.92,0,0,1,4.733-8.2,16.207,16.207,0,0,0,2.7.323c-.177,2.989-.252,6.058-.3,8.667a.754.754,0,0,1-.142.523A.63.63,0,0,1,19,15.376Zm2.048-.043a.5.5,0,0,1-.325-.088.6.6,0,0,1-.125-.46c-.039-2.628-.106-5.477-.2-8.71h.034a23.069,23.069,0,0,0,2.986-.259,36.955,36.955,0,0,1,4.174,7.669.817.817,0,0,1,.071.415c-.052.141-.153.181-.307.241A21.4,21.4,0,0,1,21.051,15.332Zm8.088-1.981a.21.21,0,0,1-.072-.012c-.091-.022-.171-.162-.3-.449A33.338,33.338,0,0,0,24.23,5.634,8.7,8.7,0,0,0,26.816,4.6a20.991,20.991,0,0,1,5.718,5.45,1.04,1.04,0,0,1,.237.572.617.617,0,0,1-.217.446,13.189,13.189,0,0,1-3.066,2.164A.769.769,0,0,1,29.139,13.352Zm4.639-4.213c-.147,0-.4-.316-.405-.319a22.484,22.484,0,0,0-5.855-4.813,2.437,2.437,0,0,0,.7-1.571,1.718,1.718,0,0,0-.257-.883A19.068,19.068,0,0,1,32.536,4.1a5.524,5.524,0,0,1,1.495,1.7,4.413,4.413,0,0,1-.041,3.065s-.091.264-.2.277Z" transform="translate(0.881 0.02)"/></clipPath><radialGradient id="b" cx="0.644" cy="0.248" r="0.485" gradientUnits="objectBoundingBox"><stop offset="0" stop-color="#316ea7"/><stop offset="1" stop-color="#152f4d"/></radialGradient><clipPath id="c"><path class="a" d="M0,0H4.839V7.219H0Z" transform="translate(0.278 0.781)"/></clipPath><clipPath id="d"><path class="a" d="M0,0H4.858V7.1H0Z" transform="translate(0.294 0.898)"/></clipPath><clipPath id="e"><path class="a" d="M0,0H5.054V7.228H0Z" transform="translate(0.125 0.771)"/></clipPath></defs><g transform="translate(0 -1)"><g transform="translate(15 12.436)"><path class="a" d="M19.841,40.6h0a18.467,18.467,0,0,1-7.585-1.646,20.554,20.554,0,0,1-6.322-4.435,21.076,21.076,0,0,1-4.328-6.468A19.629,19.629,0,0,1,0,20.3,21.466,21.466,0,0,1,5.133,6.781,19.241,19.241,0,0,1,11.42,1.908,19.763,19.763,0,0,1,20.07,0c4.381.056,6.7.942,6.7,2.562,0,1.794-4.4,2.57-6.643,2.57,0,0-.073,0-.2,0-.849,0-5.167-.087-6.752-1.8a.152.152,0,0,0-.11-.069.106.106,0,0,0-.047.012c-.071.039-.021.143-.021.144.431,1,2.191,1.842,3.644,2.2A34.456,34.456,0,0,0,11.77,13.7c-.134.283-.2.335-.283.335a.568.568,0,0,1-.189-.046,13.5,13.5,0,0,1-4.68-2.718.126.126,0,0,0-.076-.033.076.076,0,0,0-.05.019c-.06.055,0,.128,0,.129a11.348,11.348,0,0,0,4.5,3.352c.168.081.218.134.225.237a.542.542,0,0,1-.04.165,33.221,33.221,0,0,0-2.267,9.627l0,.051c-.009.132-.014.22-.079.263l-.143-.008A21.649,21.649,0,0,1,5.155,23.3a.112.112,0,0,0-.053-.015.085.085,0,0,0-.058.023.089.089,0,0,0-.026.065.114.114,0,0,0,.035.07,18.753,18.753,0,0,0,3.476,2.262.484.484,0,0,1,.3.478c0,.091-.015.871-.015,1.015a23.474,23.474,0,0,0,.734,5.955s.013.059.062.059l.014,0a.067.067,0,0,0,.056-.022.072.072,0,0,0,0-.064,42.146,42.146,0,0,1-.139-6.736s0-.117.062-.145a.076.076,0,0,1,.038-.01.383.383,0,0,1,.106.026,27.2,27.2,0,0,0,9.112,1.981c.535.045.618.135.639.687.005.3.134,7.369.134,7.7a.321.321,0,0,1-.331.357H19.3a42.356,42.356,0,0,1-6.1-.537.119.119,0,0,0-.03,0,.05.05,0,0,0-.051.029.053.053,0,0,0,.028.057c1.506.771,6.116,1.133,6.162,1.137.331.038.387.125.4.385,0,.024.123,2.363.137,2.545Zm.553,0h-.1l.148-2.5c.022-.308.093-.387.358-.4A28.446,28.446,0,0,0,29,36.346a1.925,1.925,0,0,1,.382-.088.027.027,0,0,1,.011,0,.051.051,0,0,1,.037.013.057.057,0,0,1,.013.042.934.934,0,0,1-.084.264,11.726,11.726,0,0,1-1.377,2.467A21.017,21.017,0,0,1,20.394,40.592Zm8.527-1.986h0a14.586,14.586,0,0,0,1.236-2.093A1.948,1.948,0,0,1,31,35.6a21.108,21.108,0,0,0,4.941-2.947A22.287,22.287,0,0,1,28.921,38.606Zm-8.093-1.668a.47.47,0,0,1-.27-.062c-.084-.086-.066-.324-.066-.327.085-2.747.135-5.249.154-7.647,0-.031,0-.06.006-.089.025-.394.033-.513.58-.55a28.624,28.624,0,0,0,8.758-1.556,1.264,1.264,0,0,1,.385-.086.267.267,0,0,1,.152.037c.168.11.16.589.16.594a29.188,29.188,0,0,1-.553,6.874c-.11.44-.17.682-.573.854a27.77,27.77,0,0,1-8.7,1.958ZM31.1,34.253a.035.035,0,0,1-.031-.013c-.015-.023,0-.067,0-.067a22.975,22.975,0,0,0,1.016-7.547c.01-.535.073-.768.7-1.094a18.931,18.931,0,0,0,4.481-3.1s.026-.028.046-.028.02.011.024.032A21.414,21.414,0,0,1,37.4,28.2a4.453,4.453,0,0,1-1.267,2.622,19.739,19.739,0,0,1-4.911,3.382l-.028.014A.235.235,0,0,1,31.1,34.253Zm7.406-6.383h0a20.614,20.614,0,0,0,.4-4.047c0-.012-.007-1.214-.123-2.561a2.328,2.328,0,0,1,.462-1.432A8.455,8.455,0,0,0,40.31,17a17.318,17.318,0,0,1,.233,2.841A16.141,16.141,0,0,1,38.506,27.87ZM18.9,27.025a28.379,28.379,0,0,1-9.05-1.511c-.168-.075-.225-.123-.2-.358a37.72,37.72,0,0,1,2.244-9.765c.064-.171.111-.189.176-.2a.886.886,0,0,1,.218.058,23.729,23.729,0,0,0,6.683,1.254.581.581,0,0,1,.58.659v.02c-.005.685-.05,6.764-.064,9.105.005.4-.006.5-.137.631C19.252,27.013,18.9,27.025,18.9,27.025Zm2.134-.035a.389.389,0,0,1-.266-.073.589.589,0,0,1-.087-.348c0-.375,0-.821,0-1.271v-.023c0-.449,0-.9,0-1.285,0-2.409-.02-4.342-.035-5.753q-.006-.587-.01-1.057a.583.583,0,0,1,.59-.653,23.593,23.593,0,0,0,6.6-1.13.97.97,0,0,1,.3-.076c.109,0,.176.059.3.426a43.394,43.394,0,0,1,1.974,8.39,1.753,1.753,0,0,1,.023.306c0,.369-.1.606-.611.8a28.311,28.311,0,0,1-8.708,1.742ZM32.1,24.119a.115.115,0,0,1-.078-.024c-.13-.109-.177-.632-.177-.637a35.57,35.57,0,0,0-2.076-8.192,1.011,1.011,0,0,1-.1-.353c0-.139.063-.258.379-.422a11.856,11.856,0,0,0,3.364-2.3c.12-.122.218-.186.283-.186h.015c.047,0,.136.065.245.246a27.732,27.732,0,0,1,2.817,7.1,2.975,2.975,0,0,1,.1.683,1.205,1.205,0,0,1-.455.94,22,22,0,0,1-3.877,2.967l-.016.009A1.036,1.036,0,0,1,32.1,24.119Zm6.208-5.686v0A23.8,23.8,0,0,0,35.1,11.02l-.046-.085a.711.711,0,0,1-.125-.359,1.684,1.684,0,0,1,.182-.638,6.013,6.013,0,0,0,.532-2.4,3.85,3.85,0,0,0-.047-.636,15.838,15.838,0,0,1,3.971,7.174,2.237,2.237,0,0,1,.021.292,9.082,9.082,0,0,1-1.279,4.06ZM19,15.376a24.9,24.9,0,0,1-6.494-.988.239.239,0,0,1-.12-.086s-.055-.088.068-.353a35.92,35.92,0,0,1,4.733-8.2,16.207,16.207,0,0,0,2.7.323c-.177,2.989-.252,6.058-.3,8.667a.754.754,0,0,1-.142.523A.63.63,0,0,1,19,15.376Zm2.048-.043a.5.5,0,0,1-.325-.088.6.6,0,0,1-.125-.46c-.039-2.628-.106-5.477-.2-8.71h.034a23.069,23.069,0,0,0,2.986-.259,36.955,36.955,0,0,1,4.174,7.669.817.817,0,0,1,.071.415c-.052.141-.153.181-.307.241A21.4,21.4,0,0,1,21.051,15.332Zm8.088-1.981a.21.21,0,0,1-.072-.012c-.091-.022-.171-.162-.3-.449A33.338,33.338,0,0,0,24.23,5.634,8.7,8.7,0,0,0,26.816,4.6a20.991,20.991,0,0,1,5.718,5.45,1.04,1.04,0,0,1,.237.572.617.617,0,0,1-.217.446,13.189,13.189,0,0,1-3.066,2.164A.769.769,0,0,1,29.139,13.352Zm4.639-4.213c-.147,0-.4-.316-.405-.319a22.484,22.484,0,0,0-5.855-4.813,2.437,2.437,0,0,0,.7-1.571,1.718,1.718,0,0,0-.257-.883A19.068,19.068,0,0,1,32.536,4.1a5.524,5.524,0,0,1,1.495,1.7,4.413,4.413,0,0,1-.041,3.065s-.091.264-.2.277Z" transform="translate(0.881 0.02)"/><g class="b"><path class="c" d="M19.841,40.6h0a18.467,18.467,0,0,1-7.585-1.646,20.554,20.554,0,0,1-6.322-4.435,21.076,21.076,0,0,1-4.328-6.468A19.629,19.629,0,0,1,0,20.3,21.466,21.466,0,0,1,5.133,6.781,19.241,19.241,0,0,1,11.42,1.908,19.763,19.763,0,0,1,20.07,0c4.381.056,6.7.942,6.7,2.562,0,1.794-4.4,2.57-6.643,2.57,0,0-.073,0-.2,0-.849,0-5.167-.087-6.752-1.8a.152.152,0,0,0-.11-.069.106.106,0,0,0-.047.012c-.071.039-.021.143-.021.144.431,1,2.191,1.842,3.644,2.2A34.456,34.456,0,0,0,11.77,13.7c-.134.283-.2.335-.283.335a.568.568,0,0,1-.189-.046,13.5,13.5,0,0,1-4.68-2.718.126.126,0,0,0-.076-.033.076.076,0,0,0-.05.019c-.06.055,0,.128,0,.129a11.348,11.348,0,0,0,4.5,3.352c.168.081.218.134.225.237a.542.542,0,0,1-.04.165,33.221,33.221,0,0,0-2.267,9.627l0,.051c-.009.132-.014.22-.079.263l-.143-.008A21.649,21.649,0,0,1,5.155,23.3a.112.112,0,0,0-.053-.015.085.085,0,0,0-.058.023.089.089,0,0,0-.026.065.114.114,0,0,0,.035.07,18.753,18.753,0,0,0,3.476,2.262.484.484,0,0,1,.3.478c0,.091-.015.871-.015,1.015a23.474,23.474,0,0,0,.734,5.955s.013.059.062.059l.014,0a.067.067,0,0,0,.056-.022.072.072,0,0,0,0-.064,42.146,42.146,0,0,1-.139-6.736s0-.117.062-.145a.076.076,0,0,1,.038-.01.383.383,0,0,1,.106.026,27.2,27.2,0,0,0,9.112,1.981c.535.045.618.135.639.687.005.3.134,7.369.134,7.7a.321.321,0,0,1-.331.357H19.3a42.356,42.356,0,0,1-6.1-.537.119.119,0,0,0-.03,0,.05.05,0,0,0-.051.029.053.053,0,0,0,.028.057c1.506.771,6.116,1.133,6.162,1.137.331.038.387.125.4.385,0,.024.123,2.363.137,2.545Zm.553,0h-.1l.148-2.5c.022-.308.093-.387.358-.4A28.446,28.446,0,0,0,29,36.346a1.925,1.925,0,0,1,.382-.088.027.027,0,0,1,.011,0,.051.051,0,0,1,.037.013.057.057,0,0,1,.013.042.934.934,0,0,1-.084.264,11.726,11.726,0,0,1-1.377,2.467A21.017,21.017,0,0,1,20.394,40.592Zm8.527-1.986h0a14.586,14.586,0,0,0,1.236-2.093A1.948,1.948,0,0,1,31,35.6a21.108,21.108,0,0,0,4.941-2.947A22.287,22.287,0,0,1,28.921,38.606Zm-8.093-1.668a.47.47,0,0,1-.27-.062c-.084-.086-.066-.324-.066-.327.085-2.747.135-5.249.154-7.647,0-.031,0-.06.006-.089.025-.394.033-.513.58-.55a28.624,28.624,0,0,0,8.758-1.556,1.264,1.264,0,0,1,.385-.086.267.267,0,0,1,.152.037c.168.11.16.589.16.594a29.188,29.188,0,0,1-.553,6.874c-.11.44-.17.682-.573.854a27.77,27.77,0,0,1-8.7,1.958ZM31.1,34.253a.035.035,0,0,1-.031-.013c-.015-.023,0-.067,0-.067a22.975,22.975,0,0,0,1.016-7.547c.01-.535.073-.768.7-1.094a18.931,18.931,0,0,0,4.481-3.1s.026-.028.046-.028.02.011.024.032A21.414,21.414,0,0,1,37.4,28.2a4.453,4.453,0,0,1-1.267,2.622,19.739,19.739,0,0,1-4.911,3.382l-.028.014A.235.235,0,0,1,31.1,34.253Zm7.406-6.383h0a20.614,20.614,0,0,0,.4-4.047c0-.012-.007-1.214-.123-2.561a2.328,2.328,0,0,1,.462-1.432A8.455,8.455,0,0,0,40.31,17a17.318,17.318,0,0,1,.233,2.841A16.141,16.141,0,0,1,38.506,27.87ZM18.9,27.025a28.379,28.379,0,0,1-9.05-1.511c-.168-.075-.225-.123-.2-.358a37.72,37.72,0,0,1,2.244-9.765c.064-.171.111-.189.176-.2a.886.886,0,0,1,.218.058,23.729,23.729,0,0,0,6.683,1.254.581.581,0,0,1,.58.659v.02c-.005.685-.05,6.764-.064,9.105.005.4-.006.5-.137.631C19.252,27.013,18.9,27.025,18.9,27.025Zm2.134-.035a.389.389,0,0,1-.266-.073.589.589,0,0,1-.087-.348c0-.375,0-.821,0-1.271v-.023c0-.449,0-.9,0-1.285,0-2.409-.02-4.342-.035-5.753q-.006-.587-.01-1.057a.583.583,0,0,1,.59-.653,23.593,23.593,0,0,0,6.6-1.13.97.97,0,0,1,.3-.076c.109,0,.176.059.3.426a43.394,43.394,0,0,1,1.974,8.39,1.753,1.753,0,0,1,.023.306c0,.369-.1.606-.611.8a28.311,28.311,0,0,1-8.708,1.742ZM32.1,24.119a.115.115,0,0,1-.078-.024c-.13-.109-.177-.632-.177-.637a35.57,35.57,0,0,0-2.076-8.192,1.011,1.011,0,0,1-.1-.353c0-.139.063-.258.379-.422a11.856,11.856,0,0,0,3.364-2.3c.12-.122.218-.186.283-.186h.015c.047,0,.136.065.245.246a27.732,27.732,0,0,1,2.817,7.1,2.975,2.975,0,0,1,.1.683,1.205,1.205,0,0,1-.455.94,22,22,0,0,1-3.877,2.967l-.016.009A1.036,1.036,0,0,1,32.1,24.119Zm6.208-5.686v0A23.8,23.8,0,0,0,35.1,11.02l-.046-.085a.711.711,0,0,1-.125-.359,1.684,1.684,0,0,1,.182-.638,6.013,6.013,0,0,0,.532-2.4,3.85,3.85,0,0,0-.047-.636,15.838,15.838,0,0,1,3.971,7.174,2.237,2.237,0,0,1,.021.292,9.082,9.082,0,0,1-1.279,4.06ZM19,15.376a24.9,24.9,0,0,1-6.494-.988.239.239,0,0,1-.12-.086s-.055-.088.068-.353a35.92,35.92,0,0,1,4.733-8.2,16.207,16.207,0,0,0,2.7.323c-.177,2.989-.252,6.058-.3,8.667a.754.754,0,0,1-.142.523A.63.63,0,0,1,19,15.376Zm2.048-.043a.5.5,0,0,1-.325-.088.6.6,0,0,1-.125-.46c-.039-2.628-.106-5.477-.2-8.71h.034a23.069,23.069,0,0,0,2.986-.259,36.955,36.955,0,0,1,4.174,7.669.817.817,0,0,1,.071.415c-.052.141-.153.181-.307.241A21.4,21.4,0,0,1,21.051,15.332Zm8.088-1.981a.21.21,0,0,1-.072-.012c-.091-.022-.171-.162-.3-.449A33.338,33.338,0,0,0,24.23,5.634,8.7,8.7,0,0,0,26.816,4.6a20.991,20.991,0,0,1,5.718,5.45,1.04,1.04,0,0,1,.237.572.617.617,0,0,1-.217.446,13.189,13.189,0,0,1-3.066,2.164A.769.769,0,0,1,29.139,13.352Zm4.639-4.213c-.147,0-.4-.316-.405-.319a22.484,22.484,0,0,0-5.855-4.813,2.437,2.437,0,0,0,.7-1.571,1.718,1.718,0,0,0-.257-.883A19.068,19.068,0,0,1,32.536,4.1a5.524,5.524,0,0,1,1.495,1.7,4.413,4.413,0,0,1-.041,3.065s-.091.264-.2.277Z" transform="translate(0.881 0.02)"/></g></g><g transform="translate(4 0.436)"><path class="d" d="M0,2.678C1.538,6.79,5.383,7.133,7.966,9.639a6.621,6.621,0,0,0,1.508,1.224l.033-.038a9.767,9.767,0,0,1-1.7-2.175C6.3,6.162,6.833,2.678,5.7,0A21.31,21.31,0,0,1,8.285,4.622c.92,2.7,1.276,5.747,3.414,7.789C9.386,11.5,6.69,11.7,4.634,10.07A12.058,12.058,0,0,1,0,2.678" transform="translate(2.397 43.473)"/><path class="d" d="M18.485,7.7a1.562,1.562,0,0,0,.584-.111,11.37,11.37,0,0,1-5.4-2.241C11.4,3.467,9.671,1.553,7.173,0c.309.2,1.739,3.11,2.933,4.861a5.693,5.693,0,0,0,3.344,2.2,7.264,7.264,0,0,1,1.224.356.8.8,0,0,1-.533.01,34.516,34.516,0,0,0-5.125-.694C1.853,6.734,0,4,0,4,2.118,7.842,6.489,9.271,9.36,9.271c4.082,0,7.161-1.567,9.125-1.567" transform="translate(5.432 50.263)"/><path class="d" d="M9.71,9.272c2.864,0,7.238-1.431,9.356-5.274,0,0-1.85,2.736-9.016,2.736a34.442,34.442,0,0,0-5.113.694.831.831,0,0,1-.543-.01,7.231,7.231,0,0,1,1.231-.356,5.7,5.7,0,0,0,3.342-2.2C10.163,3.109,11.588.2,11.9,0,9.4,1.553,7.671,3.466,5.411,5.352A11.422,11.422,0,0,1,0,7.593,1.555,1.555,0,0,0,.586,7.7c1.963,0,5.042,1.567,9.124,1.567" transform="translate(40.487 50.263)"/><path class="d" d="M2.437,9.375A25.659,25.659,0,0,1,4.85,11.69s-.163-.544-.326-1.216a17.593,17.593,0,0,0-1.06-3.738C2.938,5.623.748,1.99.328,0c0,0-1.555,6.25,2.109,9.375" transform="translate(3.291 38.701)"/><path class="d" d="M0,12.412C2.31,11.5,5,11.7,7.056,10.07a12.054,12.054,0,0,0,4.637-7.391C10.153,6.79,6.307,7.133,3.725,9.64a6.6,6.6,0,0,1-1.506,1.224l-.031-.038A9.989,9.989,0,0,0,3.883,8.65C5.394,6.162,4.86,2.679,5.992,0A20.731,20.731,0,0,0,3.411,4.622C2.49,7.322,2.133,10.369,0,12.412" transform="translate(50.895 43.473)"/><path class="d" d="M34.232,2.644C30.67,1.193,26.96-.648,22.663.227a7.441,7.441,0,0,1-1.307.192,7.312,7.312,0,0,1-1.3-.192c-4.3-.875-8.012.966-11.573,2.417A10.114,10.114,0,0,1,0,1.952,9.813,9.813,0,0,0,4.3,4.716a10.418,10.418,0,0,0,8.963-1.253c2.106-1.111,3.926-3.294,6.7-2.469a26.853,26.853,0,0,0-7.751,5.171L13.68,7.3a21.236,21.236,0,0,1,7.676-5.91A21.213,21.213,0,0,1,29.032,7.3L30.5,6.165A26.917,26.917,0,0,0,22.745.994c2.777-.825,4.594,1.358,6.7,2.469a10.428,10.428,0,0,0,8.966,1.253,9.832,9.832,0,0,0,4.3-2.764,10.113,10.113,0,0,1-8.482.692" transform="translate(10.969 57.765)"/><path class="d" d="M2.414,9.375C6.08,6.25,4.526,0,4.526,0,4.105,1.99,1.914,5.623,1.389,6.736A17.31,17.31,0,0,0,.328,10.474C.165,11.146,0,11.69,0,11.69A25.441,25.441,0,0,1,2.414,9.375" transform="translate(56.842 38.701)"/><path class="d" d="M.65,4l3.244.288c.865.078,1.3-.263,1.385-1.083a1.508,1.508,0,0,0-.147-.925c-.2-.33-.5-.478-1.088-.543L.912,1.393c-.119.223-.237.447-.356.671L.332,2.04C.405,1.358.482.68.565,0L.788.027c.065.247.129.5.195.742l2.986.348a1.713,1.713,0,0,1,1.472.861,2.533,2.533,0,0,1,.257,1.5c-.125,1.285-.8,1.949-1.885,1.864L.559,5.082c-.114.229-.223.458-.335.687-.075,0-.149-.011-.224-.015Q.092,4.52.208,3.29c.075.006.149.012.224.02C.5,3.541.577,3.774.65,4" transform="translate(0.703 26.343)"/><path class="d" d="M1.492,4.629,5,5.777l.47-.525c.07.024.142.048.214.07-.194.584-.384,1.167-.57,1.753-.072-.022-.142-.045-.214-.069-.021-.241-.041-.486-.063-.73Q2.769,5.61.7,4.941c-.163.2-.322.392-.482.587L0,5.461q.249-.788.508-1.569Q2.68,3.1,4.854,2.4,3.389,1.874,1.917,1.348L1.43,1.88c-.07-.024-.141-.048-.211-.075Q1.535.9,1.869,0l.209.077c.007.255.015.507.023.759q2.322.84,4.642,1.679c-.047.13-.093.259-.14.387q-2.558.8-5.111,1.727" transform="translate(1.604 19.336)"/><path class="d" d="M4.7,2.2l1.212.881a7.21,7.21,0,0,1-.8,1.617,2.487,2.487,0,0,1-3.773.692A2.593,2.593,0,0,1,.7,1.329,8.835,8.835,0,0,1,1.883.09l.1-.09,1.07.774-.233.33-1.07-.3a1.478,1.478,0,0,0-.363.339C.349,2.45.675,3.627,1.95,4.516A2.022,2.022,0,0,0,5,4.084a.9.9,0,0,0,.153-.333L4.1,2.993l-.63.39-.183-.124,1.387-1.9.186.121Z" transform="translate(6.019 12.323)"/><path class="d" d="M3.921,4.671.842,1.558l-.68.268L0,1.669,1.712,0l.16.149L1.591.828,4.718,4.014,5.7,3.063,5.358,2.014,5.6,1.773l.885,1.072S5.14,4.122,3.8,5.5l-.157-.163Z" transform="translate(9.009 9.26)"/><path class="d" d="M2.751,5.694h0A2.628,2.628,0,0,1,.612,4.442,2.883,2.883,0,0,1,.045,2.22,2.73,2.73,0,0,1,1.336.47,2.743,2.743,0,0,1,2.8,0,2.444,2.444,0,0,1,4.883,1.316a2.736,2.736,0,0,1-.731,3.929A2.521,2.521,0,0,1,2.751,5.694ZM2.211.645a1.4,1.4,0,0,0-.76.232A1.4,1.4,0,0,0,.779,1.8a2.564,2.564,0,0,0,.608,1.883A2.667,2.667,0,0,0,3.365,4.995a1.219,1.219,0,0,0,.662-.19c.72-.458.726-1.617.013-2.819A2.325,2.325,0,0,0,2.211.645Z" transform="translate(13.844 5.184)"/><path class="d" d="M2.1,6.2h0L2.02,5.994l.518-.513L.814,1.444l-.73-.018L0,1.221,2.437.2A2.3,2.3,0,0,1,3.294,0a1.351,1.351,0,0,1,.469.085,1.141,1.141,0,0,1,.71.681C4.741,1.44,4.388,2.1,3.5,2.584a2.75,2.75,0,0,1,.91-.181,1.173,1.173,0,0,1,1.176.8,1.318,1.318,0,0,1-.133,1.219,2.441,2.441,0,0,1-1.266.861L2.1,6.2ZM3.638,2.873A1.618,1.618,0,0,0,3.057,3l-.372.167.851,2.006.286-.135a1.241,1.241,0,0,0,.751-.562,1.043,1.043,0,0,0,.013-.885A1,1,0,0,0,3.638,2.873ZM2.661.589a1.231,1.231,0,0,0-.471.1L1.742.909l.82,1.913.325-.143a1.036,1.036,0,0,0,.625-1.413A.911.911,0,0,0,2.661.589Z" transform="translate(18.657 2.484)"/><path class="d" d="M.036,6h0L0,5.781l.541-.374L1.749.068,2.142,0,4.913,4.6l.647.165.034.224-2.3.314-.041-.215.553-.392L3.012,3.258,1.4,3.567,1.1,5.195l.662.167L1.8,5.58.037,6Zm1.847-4.79L1.467,3.161l1.354-.246Z" transform="translate(24.979 0.975)"/><path class="d" d="M.684,4.9.727.535.057.244l0-.22C1.3-.017,2.444.006,2.444.006V.223L1.765.5,1.714,4.992l1.263.029.514-.977.33,0L3.688,5.438S1.657,5.349,0,5.4l0-.219Z" transform="translate(31.042 0.565)"/><path class="d" d="M3.12,5.189l.691-.943.346.094-.4,1.246h-.13a5.907,5.907,0,0,1-1.63-.19A2.519,2.519,0,0,1,.1,2.133C.471.455,1.657-.335,3.682.134A5.912,5.912,0,0,1,5.213.8L4.864,2.077,4.515,2,4.426.843a2.481,2.481,0,0,0-.415-.16,2.071,2.071,0,0,0-2.875,1.7A2.078,2.078,0,0,0,2.6,5.1a2.271,2.271,0,0,0,.524.084" transform="translate(37.66 1.612)"/><path class="d" d="M3.744,4.968l3.7-1.684L8.644,4.5,8.5,4.671l-.7-.235L4.76,7.552l.343.666-.157.169c-.8-.815-1.6-1.579-1.6-1.579l.145-.183.669.218L6.6,4.251,2.536,6.086l-.149-.138,1.222-4.3L1.386,4.432l.3.639-.155.169L0,4.131l.145-.167.695.221L3.621.824,3.3.169,3.449,0,4.863,1.039Z" transform="translate(47.11 6.183)"/><path class="d" d="M1.437,5.153h0C.753,4.23.007,3.288,0,3.279l.18-.132.608.347L4.2.822,4.046.133,4.233,0,5.64,1.83a2.441,2.441,0,0,1,.631,1.476,1.368,1.368,0,0,1-.592,1.135,1.48,1.48,0,0,1-.878.295A2.144,2.144,0,0,1,3.14,3.721l-.329-.452L1.441,4.311l.172.708-.175.133Zm3.54-3.57L3.091,3.063l.157.2a1.16,1.16,0,0,0,.688.553,1.35,1.35,0,0,0,.3.034A1.311,1.311,0,0,0,5.007,3.6a1.258,1.258,0,0,0,.547-.8A.975.975,0,0,0,5.3,1.981Z" transform="translate(52.533 11.822)"/><path class="d" d="M2.528,5.2h0C2.112,4.173,1.7,3.216,1.653,3.11l.2-.1.523.42L3.482,2.257,2.743.785,1.094.907l.024.674-.209.1C.5.924,0,.122,0,.114L.205,0,.729.434,6.191.127l.191.437L2.711,4.438l.02.669-.2.1ZM5.144.6h0L3.153.736l.6,1.233L5.144.6Z" transform="translate(54.756 17.97)"/><path class="d" d="M.887,4.3l1.177.123.092.34L.869,5.039l-.063-.11A6.271,6.271,0,0,1,.132,3.437,2.476,2.476,0,0,1,1.988.167,2.622,2.622,0,0,1,5.509,2.232a6.786,6.786,0,0,1,.2,1.721l-1.3.338-.089-.345.943-.658a1.868,1.868,0,0,0-.075-.5A2.071,2.071,0,0,0,2.3,1.19C.953,1.645.339,2.546.682,3.81a3.318,3.318,0,0,0,.2.469Z" transform="translate(57.822 22.329)"/><path class="d" d="M5.067,2.906l-4.42.327-.217.9-.217.017C.165,2.714,0,1.367,0,1.367L.226,1.35l.342.856,4.421-.339L4.888.743,3.751.433,3.726.116,5.236,0a38.041,38.041,0,0,1,.352,4.716l-1.5.114L4.062,4.5l1.076-.488Z" transform="translate(58.663 27.523)"/><path class="d" d="M2.654,5.512h0A2.807,2.807,0,0,1,1.391,5.2,2.457,2.457,0,0,1,.311,1.735,2.675,2.675,0,0,1,2.711,0a3.032,3.032,0,0,1,1.4.37A2.522,2.522,0,0,1,5.458,1.842a2.56,2.56,0,0,1-.293,2.006A2.886,2.886,0,0,1,2.654,5.512ZM3.105.475c-.68,0-1.283.535-1.744,1.548C.785,3.306.928,4.448,1.718,4.865a1.094,1.094,0,0,0,.511.125A2.53,2.53,0,0,0,4.166,3.467,2.638,2.638,0,0,0,4.529,1.5,1.37,1.37,0,0,0,3.818.665,1.539,1.539,0,0,0,3.105.475Z" transform="translate(42.959 3.641)"/></g><path class="d" d="M4.319,0V4.76H4.3L1.263,0H0V6.984H1.254V2.214h.019L4.3,6.984H5.573V0Z" transform="translate(0 73.92)"/><g transform="translate(6 73.436)"><path class="d" d="M2.341,5.221A2.1,2.1,0,0,1,0,3.174v-.98A2.1,2.1,0,0,1,.685.568,2.422,2.422,0,0,1,2.3,0,1.994,1.994,0,0,1,4.466,1.969v.97H1.244v.274A1.042,1.042,0,0,0,2.4,4.222a1.413,1.413,0,0,0,1.087-.647l.979.431A2.341,2.341,0,0,1,2.341,5.221ZM2.3,1.009A.971.971,0,0,0,1.244,2.037v.069H3.271V1.969A.9.9,0,0,0,2.3,1.009Z" transform="translate(0.486 2.365)"/><path class="d" d="M2.077,6.592c-.773,0-1.4-.353-1.4-1.244V2.468H0v-.95H.677V0H1.871V1.518H2.958v.95H1.871v2.6c0,.372.2.48.471.48a3.222,3.222,0,0,0,.616-.049V6.513a6.736,6.736,0,0,1-.881.079" transform="translate(5.335 0.936)"/><path class="d" d="M5.857,5.015H4.7L3.732,1.577H3.711L2.762,5.015H1.6L0,0H1.263L2.2,3.458h.02L3.212,0H4.251L5.24,3.448h.02L6.2,0H7.444Z" transform="translate(8.658 2.454)"/><path class="d" d="M2.3,5.221A2.077,2.077,0,0,1,0,3.252V2.106A2.148,2.148,0,0,1,2.263,0a2.163,2.163,0,0,1,2.3,2.087V3.115A2.147,2.147,0,0,1,2.3,5.221Zm-.04-4.2a.961.961,0,0,0-1.048.989V3.242a.978.978,0,0,0,1.087.97A.961.961,0,0,0,3.35,3.223V1.979A.974.974,0,0,0,2.263,1.019Z" transform="translate(16.387 2.365)"/><path class="d" d="M2.771,1.1a2.374,2.374,0,0,0-.45.049,1.329,1.329,0,0,0-1.127,1.4V5.113H0V.1H1.165V.93h.019A2.051,2.051,0,0,1,2.82,0a1.877,1.877,0,0,1,.4.029v1.1A2.307,2.307,0,0,0,2.771,1.1" transform="translate(21.767 2.356)"/><path class="d" d="M3.213,6.984,1.852,4.692,1.2,5.4V6.984H0V0H1.2l.01,4.036L3.037,1.969h1.42l-1.812,1.9L4.682,6.984Z" transform="translate(25.822 0.484)"/><path class="d" d="M3.164,6.984H0V0H3C4.386,0,5.152.64,5.152,1.8a1.527,1.527,0,0,1-.988,1.48l.01.01A1.623,1.623,0,0,1,5.368,4.976,2.031,2.031,0,0,1,3.164,6.984ZM1.3,3.967v1.91H2.938c.723,0,1.138-.357,1.138-.98s-.379-.93-1.127-.93Zm0-2.86V2.87H2.841c.659,0,1.038-.329,1.038-.9s-.38-.861-1.1-.861Z" transform="translate(33.739 0.485)"/><path class="d" d="M2.341,5.221A2.1,2.1,0,0,1,0,3.174v-.98A2.1,2.1,0,0,1,.685.568,2.423,2.423,0,0,1,2.3,0,1.994,1.994,0,0,1,4.466,1.969v.97H1.244v.274A1.043,1.043,0,0,0,2.4,4.222a1.412,1.412,0,0,0,1.086-.647l.979.431A2.341,2.341,0,0,1,2.341,5.221ZM2.3,1.009A.971.971,0,0,0,1.244,2.037v.069H3.271V1.969A.9.9,0,0,0,2.3,1.009Z" transform="translate(39.725 2.365)"/><path class="d" d="M1.214,7.052C.029,7.052,0,6.093,0,5.642V0H1.194V5.632a.377.377,0,0,0,.432.411,5.291,5.291,0,0,0,.547-.038v.91a4.09,4.09,0,0,1-.959.137" transform="translate(45.085 0.485)"/><path class="d" d="M1.743,5.211A1.538,1.538,0,0,1,0,3.693,1.674,1.674,0,0,1,1.851,2.145H3.183v-.46c0-.5-.323-.754-.959-.754-.556,0-.9.192-.9.5v.175H.245V1.47C.245.386,1.272,0,2.233,0c.978,0,2.145.277,2.145,1.6V4.036a5.828,5.828,0,0,0,.088,1.077h-1.2a3.242,3.242,0,0,1-.036-.323c-.005-.06-.009-.111-.013-.137h-.02A1.7,1.7,0,0,1,1.743,5.211Zm.265-2.194c-.558,0-.842.208-.842.617s.32.637.9.637c.983,0,1.116-.51,1.116-1.01V3.017Z" transform="translate(47.593 2.355)"/><path class="d" d="M2.772,1.1a2.385,2.385,0,0,0-.451.049A1.329,1.329,0,0,0,1.2,2.546V5.113H0V.1H1.166V.93h.019A2.051,2.051,0,0,1,2.821,0a1.882,1.882,0,0,1,.4.029v1.1A2.307,2.307,0,0,0,2.772,1.1" transform="translate(52.972 2.356)"/><path class="d" d="M3.2,5.015V4.4h-.03a1.67,1.67,0,0,1-1.41.715A1.686,1.686,0,0,1,0,3.2V0H1.2V2.91c0,.753.332,1.155.94,1.155.656,0,1.028-.411,1.028-1.263V0h1.2V5.015Z" transform="translate(56.772 2.454)"/><path class="d" d="M2.242,5.23A2.54,2.54,0,0,1,0,4.26l.842-.636a1.708,1.708,0,0,0,1.38.656c.491,0,.99-.167.99-.617,0-.392-.264-.48-.941-.6l-.656-.117C.793,2.8.244,2.4.244,1.645.244.489,1.165,0,2.233,0A2.188,2.188,0,0,1,4.2.822L3.34,1.41A1.336,1.336,0,0,0,2.222.92c-.469,0-.812.176-.812.559,0,.352.431.4.95.5l.754.147c.853.166,1.342.647,1.342,1.4,0,1.157-1.185,1.7-2.214,1.7" transform="translate(61.849 2.346)"/><path class="d" d="M6.278,7.043H5.661L4.1,1.009h-.03L2.487,7.043H1.861L0,0H.646L2.174,6.044h.049L3.77,0h.7L5.985,6.044h.038L7.581,0h.588Z" transform="translate(1.564 11.899)"/><path class="d" d="M0,6.984V0H4.035V.559H.626V3.076H3.291v.549H.626v2.8H4.035v.558Z" transform="translate(10.852 11.899)"/><g transform="translate(18 11)"><path class="a" d="M0,0H4.839V7.219H0Z" transform="translate(0.278 0.781)"/><g class="e"><path class="d" d="M2.469,7.219A2.285,2.285,0,0,1,0,5.338L.667,5.25a1.715,1.715,0,0,0,1.8,1.411A1.51,1.51,0,0,0,4.143,5.24,1.3,1.3,0,0,0,3.066,3.957l-1.41-.45A1.755,1.755,0,0,1,.323,1.9,1.912,1.912,0,0,1,2.469,0,2.122,2.122,0,0,1,4.7,1.313l-.529.264A1.653,1.653,0,0,0,2.488.549,1.332,1.332,0,0,0,1,1.763a1.2,1.2,0,0,0,.95,1.146l1.44.48a1.837,1.837,0,0,1,1.45,1.753,2.109,2.109,0,0,1-2.37,2.077" transform="translate(0.278 0.781)"/></g></g><g transform="translate(24 11)"><path class="a" d="M0,0H4.858V7.1H0Z" transform="translate(0.294 0.898)"/><g class="f"><path class="d" d="M2.38,7.1A2.125,2.125,0,0,1,0,5.123V0H.646V5.006A1.624,1.624,0,0,0,2.478,6.554,1.608,1.608,0,0,0,4.261,5.016V0h.6V5.055A2.22,2.22,0,0,1,2.38,7.1" transform="translate(0.294 0.898)"/></g></g><path class="d" d="M.627,6.984H0V0H2.184A2,2,0,0,1,4.446,2.028c0,1.337-.893,2.136-2.389,2.136H.627v2.82Zm0-6.425V3.605H1.959c1.225,0,1.821-.516,1.821-1.578,0-.933-.671-1.469-1.841-1.469Z" transform="translate(30.623 11.898)"/><path class="d" d="M.627,6.984H0V0H2.184A2,2,0,0,1,4.447,2.028c0,1.337-.893,2.136-2.389,2.136H.627v2.82Zm0-6.425V3.605H1.959c1.225,0,1.821-.516,1.821-1.578,0-.933-.671-1.469-1.841-1.469Z" transform="translate(36.463 11.898)"/><g transform="translate(42 11)"><path class="a" d="M0,0H5.054V7.228H0Z" transform="translate(0.125 0.771)"/><g class="g"><path class="d" d="M2.488,7.229A2.662,2.662,0,0,1,.708,6.65,2.212,2.212,0,0,1,0,4.917V2.508A2.364,2.364,0,0,1,2.537,0,2.228,2.228,0,0,1,5.054,2.321V4.8A2.343,2.343,0,0,1,2.488,7.229ZM2.5.569A1.725,1.725,0,0,0,.666,2.488V4.868a1.673,1.673,0,0,0,1.871,1.8A1.684,1.684,0,0,0,4.388,4.858V2.341A1.654,1.654,0,0,0,2.5.569Z" transform="translate(0.125 0.771)"/></g></g><path class="d" d="M.627,6.985H0V0H2.272A2,2,0,0,1,4.535,2.028a1.987,1.987,0,0,1-1.841,2.1L4.73,6.982l-.773,0L2.007,4.163H.627V6.984Zm0-6.426V3.605H2.047c1.226,0,1.822-.516,1.822-1.578C3.868,1.094,3.2.559,2.027.559Z" transform="translate(48.612 11.898)"/><path class="d" d="M2.684.568V6.984H2.018V.568H0V0H4.682V.568Z" transform="translate(54.059 11.899)"/></g></g></svg>