<svg xmlns="http://www.w3.org/2000/svg" width="96.901" height="25.19" viewBox="0 0 96.901 25.19"><defs><style>.a{fill:#161616;}</style></defs><g transform="translate(-1584.573 -1204.088)"><path class="a" d="M-1368.839,4069.529c-1.574,6.062-3.1,10.039-8.7,11.817a7.492,7.492,0,0,1-2.226.279q-24.7.024-49.408.011c-.412,0-.824-.051-1.4-.09.5-1.405.888-2.71,1.441-3.943a1.579,1.579,0,0,1,1.208-.632c2.27-.062,4.542-.019,6.814-.032,1.972-.012,3.92-2.2,3.478-4.1a2.154,2.154,0,0,0-1.606-1.125c-1.636-.154-3.3-.053-5.186-.053.541-1.517.979-2.885,1.539-4.2.11-.26.683-.442,1.049-.455,1.513-.05,3.032.051,4.541-.037,3.191-.185,5.6,2.095,4.48,6.173-.334,1.215-.852,2.379-1.338,3.711.481.033.923.089,1.365.089q7.1.01,14.2,0a2.887,2.887,0,0,0,3.207-2.2c.563-1.448,1.052-2.926,1.654-4.358a1.434,1.434,0,0,1,.919-.81c1.258-.1,2.528-.038,4.034-.038l-2.707,7.367a16.864,16.864,0,0,0,4.066-.086,3.876,3.876,0,0,0,2.02-1.94,30.074,30.074,0,0,0,1.632-4.358,1.249,1.249,0,0,1,1.439-1.008c1.121.066,2.249.017,3.639.017l-2.705,7.338a18.7,18.7,0,0,0,4.178-.086,3.633,3.633,0,0,0,1.9-1.89c.714-1.423,1.115-3,1.742-4.471a1.556,1.556,0,0,1,1.031-.845C-1371.321,4069.462-1370.092,4069.529-1368.839,4069.529Z" transform="translate(3050.313 -2852.548)"/><path class="a" d="M-2907.692,4081.865a1.532,1.532,0,0,1-.024-.3c1.284-4.275,1.284-4.275,5.74-4.275,2.934,0,5.867.015,8.8-.006a3.861,3.861,0,0,0,3.386-4.122c-.192-.973-.941-1.175-1.832-1.167-2.454.022-4.909.007-7.582.007.53-1.473.952-2.81,1.512-4.085a1.444,1.444,0,0,1,1.114-.563c2.6-.047,5.205-.067,7.806-.005a4.062,4.062,0,0,1,4.039,4.639c-.66,4.329-2.845,7.973-7.659,9.66a5.626,5.626,0,0,1-1.8.309c-4.211.028-8.421.021-12.632.017A7.383,7.383,0,0,1-2907.692,4081.865Z" transform="translate(4492.293 -2852.893)"/><path class="a" d="M-1863.162,3633.638h5.07s-7.915,23.818-9.52,24.657-4.888.438-4.888.438Z" transform="translate(3481.723 -2429.55)"/></g></svg>