<svg xmlns="http://www.w3.org/2000/svg" width="106.405" height="28.834" viewBox="0 0 106.405 28.834"><defs><style>.a{fill:none;stroke:#707070;}.a,.b{fill-rule:evenodd;}.b{fill:#161616;}</style></defs><g transform="translate(0.5 0.016)"><path class="a" d="M0,.8H27.834V28.637H0Z" transform="translate(0 -0.319)"/><path class="b" d="M3.324,24.144l3.421,3.487L14.76,19.5l8.283,8.3,3.471-3.437-8.2-8.2,1.576-1.526V11.384l.989-.838v2.548l1.274,1.039,3.806-3.806,1.224.939C27.906,8.6,23.731,2.548,20.277,5.9l-4.025,3.99.822.989-2.046,2L13.05,10.931l1.039-.939L9.679,5.733C6.36,3,2.956,7.159,2.838,11.216L4.045,10.21,7.75,14.2l1.325-1.106V10.647l.821.62v3.2l1.61,1.61L3.324,24.144Z" transform="translate(-1.128 -1.929)"/><path class="b" d="M55.9,3.82V6.235h1.039c1.425-.268,1.039-2.314,0-2.415Zm-2.951-2.4V12.356H55.9V8.8l2.515,3.555H61.9L58.8,7.98a3.416,3.416,0,0,0-1.526-6.556H52.948ZM66.6,6.889a1.706,1.706,0,0,1,1.76,1.643,1.756,1.756,0,0,1-3.5,0A1.7,1.7,0,0,1,66.6,6.889Zm-.621-2.415a3.8,3.8,0,0,1,2.18.7V4.759H71.04l.017,7.6H68.139l.017-.469a3.783,3.783,0,0,1-2.18.688A3.984,3.984,0,0,1,62.07,8.532a4,4,0,0,1,3.907-4.058Zm6.607.285h3.068v7.6H72.583v-7.6ZM74.125.416A1.626,1.626,0,1,1,72.5,2.043,1.624,1.624,0,0,1,74.125.416ZM97.416,4.759h3.068v7.6H97.416v-7.6ZM98.942.416a1.626,1.626,0,1,1-1.61,1.626A1.628,1.628,0,0,1,98.942.416ZM76.222,4.759V7.174h1.056v5.181h2.968V7.174H83.03v5.181H86.1V7.141H88.01V4.793h-2V3.1c-.05-.62,1.409-.872,1.912-.369V.249c-2.817-.889-5.1.7-5.081,3.169V4.759H80.229V3.1c-.034-.62,1.241-.872,1.978-.369V.249C79.759-.472,77.144.718,77.16,3.4V4.742l-.939.017Zm16.164,7.814c2.633-.017,3.6-1.106,4.175-2.7H93.9a1.554,1.554,0,0,1-2.884-.838h5.634c0-3.085-1.644-4.544-4.259-4.544a4.027,4.027,0,0,0-4.259,4.092,4.1,4.1,0,0,0,4.258,3.99ZM91.4,7.241c.034-.923,2.046-.923,2.18,0Zm21.882,5.332c2.649-.017,3.622-1.106,4.192-2.7h-2.683a1.554,1.554,0,0,1-2.883-.838h5.634c0-3.085-1.626-4.544-4.259-4.544a4.026,4.026,0,0,0-4.259,4.092,4.094,4.094,0,0,0,4.258,3.99Zm-.989-5.332c.034-.923,2.046-.923,2.18,0Zm-4.074-2.331-.906,1.845c-1.14-.353-2.247-.285-2.213.033.034.2-.151.553,1.626.805,2.649.419,2.431,5.349-2.012,4.98a6.74,6.74,0,0,1-3.035-.889l.989-1.979c1.392.688,2.733,1.09,2.833.4.118-.855-1.459-.553-2.415-1.274-1.71-1.056-.738-4.326,2.063-4.36a8.31,8.31,0,0,1,3.068.437Zm10.5-.151v7.6h2.868V7.71c.084-1.157,2.364-1.358,2.381,0v4.645h2.9V7.593c-.067-2.666-2.867-3.957-5.4-2.264v-.57ZM54.641,17,52.73,28.268h5.416c3.672,0,5.181-4.56,2.565-6.12,2.23-2.063,1.09-5.164-1.308-5.2L54.641,17Zm2.2,6.724-.386,1.861H57.71c1.425.067,1.258-1.861.436-1.861Zm.637-4.041-.318,1.51.386.016c1.157.067,1.828-1.526.436-1.526Zm4.46,8.6h3.287l.989-1.979h3.722l.553,2.013h3.035L70.889,17.067h-3.1L61.935,28.285Zm5.349-4.343H69.33l-.654-2.968-1.392,2.968Zm7.277,4.377H77.6l.771-7.059,4.343,7.026h3.253L87.321,17H84.287l-.855,7.059-4.344-7.093H75.953L74.561,28.318ZM89.5,16.966l-2.13,11.319h3.2l.855-4.226L94.3,28.285h4.209L94.4,22.348l5.249-5.4H95.571l-3.588,3.99.57-3.99-3.052.017Z" transform="translate(-20.955 0)"/></g></svg>