<svg xmlns="http://www.w3.org/2000/svg" width="100.423" height="33.342" viewBox="0 0 100.423 33.342"><defs><style>.a{fill:#161616;}</style></defs><g transform="translate(0.001)"><path class="a" d="M-1548.917-908.658c-7.386,0-13.687-.709-18.22-2.05a17.572,17.572,0,0,1-5.438-2.49,5.5,5.5,0,0,1-2.363-3.4c-.362-2.077.838-4.348,3.567-6.75a46.1,46.1,0,0,1,11.618-6.879,2.4,2.4,0,0,0-.976,1.623,3.625,3.625,0,0,0,.023,1.4c.26,1.212,1.586,1.937,2.755,2.577.87.476,1.692.926,1.921,1.5a1.359,1.359,0,0,1,.022.771.906.906,0,0,1-1.011.7.926.926,0,0,1-1.047-.942v-1h-2.786l0,.8c0,2.622,2.365,3.014,3.776,3.014,2.15,0,3.454-.843,3.67-2.373a5.318,5.318,0,0,0-.011-1.706c-.252-1.25-1.643-1.986-2.871-2.635-.9-.476-1.676-.886-1.8-1.4a1.354,1.354,0,0,1-.011-.548.859.859,0,0,1,.949-.695.885.885,0,0,1,.966.942v.641h2.588v-.728c0-1.735-1.178-2.615-3.5-2.615a6.315,6.315,0,0,0-1.446.152,120.816,120.816,0,0,1,14.224-4.919,170.634,170.634,0,0,1,17.06-3.854A158.366,158.366,0,0,1-1500.654-942c7.385,0,13.683.709,18.215,2.05a17.561,17.561,0,0,1,5.436,2.489,5.494,5.494,0,0,1,2.362,3.4c.355,2.035-.791,4.258-3.406,6.609a44.24,44.24,0,0,1-11.172,6.752,2.478,2.478,0,0,0,.994-1.851c.033-.361.036-.5.038-.686v-2.787h-3.682v1.516h1.065V-923a2.5,2.5,0,0,1-.023.394.967.967,0,0,1-1.062.751.963.963,0,0,1-1.055-.747,2.235,2.235,0,0,1-.027-.394v-4.749a2.411,2.411,0,0,1,.043-.49.954.954,0,0,1,1.034-.758.946.946,0,0,1,1.036.758,2.71,2.71,0,0,1,.033.394v.582h2.617v-.347a6.038,6.038,0,0,0-.022-.685c-.208-2.12-2.1-2.565-3.645-2.565-2.187,0-3.448.887-3.647,2.565-.021.176-.044.5-.044.685l0,4.371c0,.185.008.332.037.686.208,2.23,2.38,2.563,3.656,2.563a6.022,6.022,0,0,0,1.38-.148,146.644,146.644,0,0,1-31.82,9A158.463,158.463,0,0,1-1548.917-908.658Zm21.876-14.958,0,.793c0,2.6,2.342,2.984,3.739,2.984,2.128,0,3.418-.834,3.631-2.348a4.989,4.989,0,0,0-.007-1.687c-.251-1.238-1.628-1.966-2.843-2.609-.891-.472-1.66-.879-1.784-1.39a1.3,1.3,0,0,1-.011-.537.849.849,0,0,1,.941-.689.873.873,0,0,1,.952.93v.635h2.57v-.723c0-1.718-1.168-2.588-3.47-2.588-1.472,0-3.291.4-3.594,2.281a3.557,3.557,0,0,0,.025,1.387c.255,1.2,1.567,1.918,2.725,2.551.862.472,1.675.917,1.9,1.488a1.379,1.379,0,0,1,.022.76.894.894,0,0,1-1,.69.923.923,0,0,1-1.033-.93l0-1Zm9.841-6.964v7.448c0,.192.015.587.022.68.161,1.7,1.381,2.568,3.626,2.568s3.461-.864,3.624-2.568c.011-.1.029-.489.023-.68v-7.448h-2.625v7.685a2.238,2.238,0,0,1-.025.4.936.936,0,0,1-.994.753.945.945,0,0,1-1-.754,2.383,2.383,0,0,1-.024-.4v-7.682Zm-19.462,0h-4.236l-.23,10.382h2.6l.065-9.334h.056l1.738,9.334h2.633l1.735-9.333h.054l.068,9.334h2.595l-.224-10.382h-4.234l-1.282,7.938h-.056Zm-8.455,0h-4.618l-1.924,10.382h2.8l1.422-9.418h.059l1.382,9.419h2.794Zm40.52,1.843h.056l2.565,8.432h3.694v-10.275h-2.569l.141,8.151h-.056l-2.387-8.151h-3.857V-920.3h2.555l-.143-8.431Zm14.112,8.594v0c.432-.187.857-.375,1.266-.56A3.456,3.456,0,0,1-1490.484-920.138Zm-69.26-10.093v0a3.41,3.41,0,0,1,1.2-.518C-1558.919-930.591-1559.323-930.417-1559.744-930.231Z" transform="translate(1575 942)"/></g></svg>