<svg xmlns="http://www.w3.org/2000/svg" width="126.389" height="24.161" viewBox="0 0 126.389 24.161"><defs><style>.a{fill:#161616;}</style></defs><path class="a" d="M44.751,275.765a12.378,12.378,0,1,1-24.751,0v-.822l7.52,4.4,15.862-9.29A11.846,11.846,0,0,1,44.751,275.765Zm-17.231.358-6.972-4.044a6.929,6.929,0,0,0-.358,1.369l7.352,4.234,15.23-8.826c-.274-.358-.548-.737-.822-1.1Zm13.418-9.374a8.818,8.818,0,0,0-1.1-.927L27.52,272.984l-5.9-3.5a7.246,7.246,0,0,0-.632,1.285l6.53,3.771ZM27.52,271.362l11.143-6.425c-.548-.274-.99-.548-1.453-.737L27.5,269.8l-4.234-2.486c-.274.358-.632.737-.906,1.1Z" transform="translate(-20 -264.2)"/><path class="a" d="M172.875,285.957c-1.453-.548-3.075-1.285-3.075-3.686,0-2.212,1.453-3.771,4.992-3.771a7.631,7.631,0,0,1,3.455.653v2.57h-.716l-.19-.737a2.248,2.248,0,0,0-2.359-1.664c-1.9,0-2.549.927-2.549,2.022,0,1.2.548,1.664,1.812,2.106l1.727.653c1.9.737,2.907,1.748,2.907,3.855,0,1.938-1.264,4.044-5.161,4.044a13.038,13.038,0,0,1-3.707-.548v-2.844h.822l.19.927c.274,1.011.906,1.664,2.633,1.664,1.622,0,2.633-.822,2.633-2.3a2.352,2.352,0,0,0-1.622-2.3Zm12.239-7.183c2.549,0,4.8.274,4.8,2.949,0,1.833-1.18,2.57-2.633,2.844a3.154,3.154,0,0,1,3.075,3.223c0,3.223-2.17,3.96-5.35,3.96h-4.887v-.358c.632-.19.716-.358.716-1.011V280.269c0-.737-.084-.927-.716-1.011v-.463h4.992Zm-1.453,5.435h1.18c1.453,0,2.275-.548,2.275-2.3s-.716-2.38-2.17-2.38h-.463c-.632,0-.822.19-.822.737v3.939Zm0,.822v4.782c0,.822.19,1.1,1.1,1.1h.463c1.453,0,2.359-.927,2.359-2.949,0-1.938-.716-2.949-2.717-2.949h-1.2Zm12.513-5.519c-.548,0-.632.19-.632.548V284.1h1.727a5.739,5.739,0,0,0,2.275-.358v1.664a5.675,5.675,0,0,0-2.275-.358h-1.727v4.866c0,.822.274,1.011,2,1.011h.358c1.622,0,2.085-.084,2.443-1.748l.084-.463h.822v3.033H192v-.358c.632-.19.716-.358.716-1.011V280.269c0-.737-.084-.927-.716-1.011v-.463h8.974v2.844h-.716l-.084-.653c-.358-1.369-.906-1.475-2.549-1.475Zm17.694,12.239h-3.539c-.19-.737-1.18-3.307-1.538-4.234l-.716-1.748h-1.538v4.508c0,.737.084.927.716,1.011v.358H203v-.358c.632-.19.716-.358.716-1.011V280.164c0-.737-.084-.927-.716-1.011v-.358h5.161c2.717,0,4.634.653,4.634,3.391a3.177,3.177,0,0,1-2.275,3.223C210.876,285.852,212.772,290.17,213.868,291.75Zm-6.172-6.8c1.812,0,2.275-.927,2.275-2.759s-.822-2.675-2-2.675h-.632c-.548,0-.822.084-.822.737v4.7h1.18Zm12.323-6.172c2.549,0,4.8.274,4.8,2.949,0,1.833-1.18,2.57-2.633,2.844a3.154,3.154,0,0,1,3.075,3.223c0,3.223-2.17,3.96-5.35,3.96h-4.887v-.358c.632-.19.716-.358.716-1.011V280.269c0-.737-.084-.927-.716-1.011v-.463h4.992Zm-1.453,5.435h1.18c1.453,0,2.275-.548,2.275-2.3s-.716-2.38-2.17-2.38H219.3c-.716,0-.822.19-.822.737v3.96h.084Zm0,.822v4.782c0,.822.19,1.1,1.1,1.1h.463c1.453,0,2.359-.927,2.359-2.949,0-1.938-.716-2.949-2.717-2.949h-1.2Zm16.157,6.72a18.067,18.067,0,0,0-.906-3.033l-.548-1.664h-4.087a31.278,31.278,0,0,0-.906,3.118,7.437,7.437,0,0,0-.274,1.559h-2.359a33.33,33.33,0,0,0,1.812-3.855L229.814,282a5.512,5.512,0,0,0,.632-2.107c0-.274-.084-.653-.716-.737v-.358h3.707a10.9,10.9,0,0,0,.463,1.938l2.717,7.815a24.351,24.351,0,0,0,1.369,3.307h-3.265Zm-1.727-5.519-1.727-5.245-1.812,5.245Zm7.984-5.161v9.29c0,.737.19.927.906,1.011v.358h-3.075v-.358c.716-.19.906-.358.906-1.011V280.248c0-.737-.19-.927-.906-1.011v-.463h3.9c.274.463.822,1.285,1.9,2.949l3.9,5.414v-6.994c0-.737-.19-.927-.906-1.011v-.358h3.075v.358c-.716.19-.906.358-.906,1.011v11.67h-1.18Zm12.239-.906c0-.737-.084-.927-.716-1.011v-.358h4.255v.358c-.632.19-.716.358-.716,1.011v10.111c0,.737.084.927.716,1.011v.358H252.5v-.358c.632-.19.716-.358.716-1.011Zm6.888,5.877a56.6,56.6,0,0,0,4.529,5.709h-4.36a22.888,22.888,0,0,0-2.085-3.855l-1.9-2.949,1.727-2.212a21.206,21.206,0,0,0,2.633-3.96h2.991a25.333,25.333,0,0,0-3.813,3.391l-1.369,1.475Z" transform="translate(-138.245 -275.488)"/><path class="a" d="M265.181,357.1H170.6v1.285h94.56V357.1Z" transform="translate(-138.876 -337.531)"/></svg>