<svg xmlns="http://www.w3.org/2000/svg" width="79.561" height="32.297" viewBox="0 0 79.561 32.297"><defs><style>.a{fill:#161616;}</style></defs><g transform="translate(40.953)"><path class="a" d="M0,0V3.226H7.334V18.545h3.2V3.226h7.31V0Z"/></g><g transform="translate(59.742 0.001)"><path class="a" d="M-7.1,0c-2.7,0-9.337,1.2-9.337,9.269S-9.8,18.544-7.1,18.544H3.382V15.316H-7.1c-1.773,0-6.111-1.145-6.111-6.046S-8.874,3.232-7.1,3.232H3.382V0H-7.1" transform="translate(16.438 0)"/></g><g transform="translate(56.784 22.51)"><path class="a" d="M0,0V4.744A1.942,1.942,0,0,0,.678,6.389a2.582,2.582,0,0,0,1.34.461h9.91A2.81,2.81,0,0,0,13.6,6.389a1.955,1.955,0,0,0,.677-1.645V2.168h-.814V4.744A1.154,1.154,0,0,1,13,5.784a2.139,2.139,0,0,1-1.163.243h-.855a2.351,2.351,0,0,0,.555-1.574,2.162,2.162,0,0,0-.659-1.647,2.342,2.342,0,0,0-1.688-.638H5.27V6.027H3.488V4.11H2.675V6.027H2.438a2.113,2.113,0,0,1-1.159-.243,1.137,1.137,0,0,1-.46-1.04V0H0M6.081,2.986H9.192a1.475,1.475,0,0,1,1.534,1.539A1.478,1.478,0,0,1,10.3,5.614a1.57,1.57,0,0,1-1.105.413H6.081V2.986M13.327.68a.541.541,0,1,0,1.083,0,.541.541,0,0,0-1.083,0m-1.458,0a.531.531,0,0,0,.549.547A.512.512,0,0,0,12.951.68a.511.511,0,0,0-.533-.537.53.53,0,0,0-.549.537"/></g><g transform="translate(46.226 22.652)"><path class="a" d="M0-.409A.525.525,0,0,0,.539.138a.519.519,0,0,0,.542-.547A.518.518,0,0,0,.539-.946.524.524,0,0,0,0-.409" transform="translate(0 0.946)"/></g><g transform="translate(50.168 22.51)"><path class="a" d="M-3.528,0V4.744A1.149,1.149,0,0,1-4,5.784a2.125,2.125,0,0,1-1.16.243h-.236V2.168h-.814V6.027H-8.166v.823h3.009A2.864,2.864,0,0,0-3.4,6.389a1.952,1.952,0,0,0,.674-1.645V0h-.806" transform="translate(8.166)"/></g><g transform="translate(44.772 22.652)"><path class="a" d="M0-.409A.525.525,0,0,0,.542.138a.514.514,0,0,0,.537-.547A.512.512,0,0,0,.542-.946.524.524,0,0,0,0-.409" transform="translate(0 0.946)"/></g><g transform="translate(42.318 24.677)"><path class="a" d="M-5.153,0V2.383a1.424,1.424,0,0,1-.432,1.063,1.511,1.511,0,0,1-1.1.413H-9.577a1.529,1.529,0,0,1-1.107-.413,1.33,1.33,0,0,1-.424-.995V1.02h-.821v1.5a2.179,2.179,0,0,0,.664,1.472,2.26,2.26,0,0,0,1.687.688h2.894A2.243,2.243,0,0,0-5,3.994a2.072,2.072,0,0,0,.665-1.472V0h-.814" transform="translate(11.929)"/></g><g transform="translate(71.967 22.509)"><path class="a" d="M-3.524,0V4.744a1.134,1.134,0,0,1-.469,1.04,2.1,2.1,0,0,1-1.153.243h-.236V2.169H-6.2V6.027H-8.158V6.85h3.012a2.846,2.846,0,0,0,1.759-.461,1.941,1.941,0,0,0,.671-1.645V0h-.809" transform="translate(8.158)"/></g><path class="a" d="M393.47,551.036h.81v-6.849h-.81Z" transform="translate(-314.731 -521.677)"/><g transform="translate(0 22.626)"><path class="a" d="M-2.233-.411A.524.524,0,0,0-1.69.127a.515.515,0,0,0,.54-.539.518.518,0,0,0-.54-.541.528.528,0,0,0-.542.541m-1.447,0a.522.522,0,0,0,.54.539A.511.511,0,0,0-2.6-.411.514.514,0,0,0-3.14-.953a.525.525,0,0,0-.54.541M4.433,1.071V1.89H6.667A1.459,1.459,0,0,1,8.206,3.4,1.49,1.49,0,0,1,6.667,4.932H3.785v.814H6.667A2.276,2.276,0,0,0,9.021,3.4a2.248,2.248,0,0,0-2.354-2.33H4.433m-2.587,0V4.932H-.187V1.071H-2.821A2.229,2.229,0,0,0-5.169,3.4,2.257,2.257,0,0,0-2.821,5.746H2.663V1.071H1.847m-6.2,2.33A1.45,1.45,0,0,1-2.821,1.89h1.83V4.932h-1.83A1.481,1.481,0,0,1-4.356,3.4M1.777,7.325a.523.523,0,0,0,.537.548.515.515,0,0,0,.536-.548.509.509,0,0,0-.536-.535.517.517,0,0,0-.537.535m-1.456,0a.529.529,0,0,0,.542.548.52.52,0,0,0,.543-.548A.514.514,0,0,0,.863,6.79a.523.523,0,0,0-.542.535" transform="translate(5.169 0.953)"/></g><g transform="translate(15.778 22.486)"><path class="a" d="M-16.056,0V6.024a3.055,3.055,0,0,1-1.387-.241,1.143,1.143,0,0,1-.465-1.044V2.163H-18.8V4.739a1.144,1.144,0,0,1-.466,1.044,2.1,2.1,0,0,1-1.159.241h-.232V2.163h-.811v3.86h-1.882V2.163h-.812v3.86H-27.13l1.456-1.414V4.275a2.624,2.624,0,0,0-.09-.72c-.1-.4-.371-1.392-2.49-1.392s-2.384,1-2.493,1.392a3,3,0,0,0-.083.72v.352l1.46,1.4h-2.812V2.163h-2.632a2.243,2.243,0,0,0-2.352,2.328,2.268,2.268,0,0,0,2.352,2.348h1.82v.875a1.159,1.159,0,0,1-.464,1.043A2.239,2.239,0,0,1-34.622,9h-2.257v.813h2.257a2.865,2.865,0,0,0,1.762-.453,1.946,1.946,0,0,0,.677-1.643V6.839h3.123a1.063,1.063,0,0,0,.392-.072.617.617,0,0,0,.325-.238.442.442,0,0,0,.089-.294.544.544,0,0,0-.15-.391l-1.611-1.573a1.154,1.154,0,0,1,.459-1.048,2.811,2.811,0,0,1,1.3-.241,2.683,2.683,0,0,1,1.184.175,1.1,1.1,0,0,1,.581,1.11l-1.62,1.578a.528.528,0,0,0-.145.391.426.426,0,0,0,.084.294.589.589,0,0,0,.325.238,1.05,1.05,0,0,0,.4.072h7.028a2.9,2.9,0,0,0,1.763-.453,1.447,1.447,0,0,0,.307-.311,1.522,1.522,0,0,0,.308.311,3.655,3.655,0,0,0,1.978.453h.82V0h-.812m-20.3,4.492a1.461,1.461,0,0,1,1.536-1.509h1.82V6.024h-1.82a1.488,1.488,0,0,1-1.536-1.532M-14.1,6.839h.813V0H-14.1Z" transform="translate(37.166)"/></g><g transform="translate(18.718)"><path class="a" d="M-3.894,0A5.12,5.12,0,0,0-9.015,5.122,5.123,5.123,0,0,0-3.894,10.24l9.978-.007a2.542,2.542,0,1,1,0,5.084H-8.664v3.228H6.083A5.772,5.772,0,0,0,6.083,7H-3.894a1.887,1.887,0,0,1-1.89-1.878,1.9,1.9,0,0,1,1.89-1.9H9.818V0H-3.894" transform="translate(9.015)"/></g></svg>