<svg xmlns="http://www.w3.org/2000/svg" width="14" height="14" viewBox="0 0 14 14"><defs><style>.a{fill:#fff;fill-rule:evenodd;}</style></defs><path class="a" d="M7,0a7,7,0,1,0,7,7A7,7,0,0,0,7,0ZM6.805,5.932,6.79,5.69a1.415,1.415,0,0,1,.955-1.424,1.673,1.673,0,0,1,.857-.02,1.992,1.992,0,0,1,.416.217l.24.163.264-.084a2.731,2.731,0,0,0,.431-.168c.083-.044.157-.069.157-.054a1.438,1.438,0,0,1-.333.529c-.206.222-.147.242.269.094.25-.084.255-.084.206.01a3.229,3.229,0,0,1-.343.381c-.274.272-.289.3-.289.529a5.1,5.1,0,0,1-.333,1.483,4.3,4.3,0,0,1-1.63,1.918,4.136,4.136,0,0,1-3.212.366A3.726,3.726,0,0,1,3.5,9.194a1.448,1.448,0,0,1,.4-.04,2.757,2.757,0,0,0,1.312-.366l.264-.158-.3-.1a1.48,1.48,0,0,1-.916-.811c-.029-.1-.02-.109.255-.109l.284,0-.24-.114a1.581,1.581,0,0,1-.671-.633,1.771,1.771,0,0,1-.176-.662.578.578,0,0,1,.23.054c.338.124.382.094.186-.114a1.427,1.427,0,0,1-.3-1.463l.083-.237.323.321A3.982,3.982,0,0,0,6.56,5.9Z"/></svg>