<svg xmlns="http://www.w3.org/2000/svg" width="70.947" height="37.47" viewBox="0 0 70.947 37.47"><defs><style>.a{fill:#161616;}</style></defs><path class="a" d="M101.153,16.39a15.916,15.916,0,0,1,2.622-6.7c2.149-2.937,5.737-5.48,12.755-5.461l.71-3.292c-8.26-.256-13.386,2.937-16.125,6.821a19.426,19.426,0,0,0-3.273,8.615l3.312.019Zm5.973,0a9.465,9.465,0,0,1,1.38-2.937c1.222-1.656,3.115-3.115,6.8-3.41l.71-3.352c-5.066.138-8.378,2.248-10.172,4.83a13,13,0,0,0-2.089,4.849Zm-3.41,0h0Z" transform="translate(-72.748 -0.921)"/><path class="a" d="M43.129,50.5l.729-3.351A5.05,5.05,0,0,0,39.8,49.412a5.825,5.825,0,0,0-.65,1.084Zm22.118,0H61.7l.749-3.351A3.677,3.677,0,0,1,65.248,50.5ZM9.971,47.165,6.186,65.006c-.67,3.135.276,4.534,2.681,4.534,2.366,0,3.943-1.4,4.613-4.534l3.8-17.841h3.962L17.522,64.69c-1.222,5.756-4.534,7.826-9.265,7.826-4.771,0-7.2-2.089-5.973-7.826L6.009,47.165H9.971ZM22.8,53.315h3.568L25.92,55.5h.1A6.856,6.856,0,0,1,31.4,52.823c2.858,0,4.4,1.3,3.588,5.086l-3,14.154H28.226L30.947,59.21c.512-2.444,0-3.391-1.892-3.391-1.538,0-3.253,1.222-3.765,3.667L22.608,72.063H18.862L22.8,53.315Zm15.988,0h3.765L38.575,72.063H34.81l3.982-18.748Zm8.043-6.151h12.7L58.8,50.516H50.089l-1.459,6.9h8.733l-.69,3.351H47.94l-2.4,11.3H41.552l5.283-24.9Zm14.292,6.151h3.765L60.911,72.063H57.146l3.982-18.748Z" transform="translate(-1.97 -35.046)"/><path class="a" d="M256.085,52.5a2.6,2.6,0,1,1,2.543-2.6A2.507,2.507,0,0,1,256.085,52.5Zm0-4.771a2.029,2.029,0,0,0-2.011,2.149,2.006,2.006,0,1,0,2.011-2.149Zm-.512,3.647H255.1V48.5h1.084c.69,0,1.045.236,1.045.828,0,.532-.315.729-.749.789l.808,1.262h-.532l-.749-1.242h-.453l.019,1.242Zm.533-1.636c.355,0,.67-.04.67-.453,0-.355-.335-.394-.631-.394h-.572v.848Z" transform="translate(-187.681 -35.159)"/></svg>