<svg xmlns="http://www.w3.org/2000/svg" width="38" height="38" viewBox="0 0 38 38"><defs><style>.a{fill:#161616;}</style></defs><path class="a" d="M19.135,0h1.38A19.357,19.357,0,0,1,28.68,2.227a19.062,19.062,0,0,1,9.183,11.061,18.287,18.287,0,0,1,.772,3.861,30.343,30.343,0,0,1,.053,3.092,18.736,18.736,0,0,1-2.5,8.269A19,19,0,0,1,20.5,38h-1.57a23.1,23.1,0,0,1-2.386-.26A18.965,18.965,0,0,1,.744,19.773a8.107,8.107,0,0,1,.008-1.7c-.012-.521.089-1.033.107-1.552L.9,16.475A18.912,18.912,0,0,1,8.618,3.562,19.113,19.113,0,0,1,19.135,0M18.009,1.838a4.545,4.545,0,0,1-.613.079c-.306.062-.617.094-.922.16-.126.031-.254.055-.381.08-.1.028-.209.05-.314.073-.305.08-.613.151-.911.26L14.7,2.53c-.077.029-.154.059-.232.087l-.234.07-.12.08c.068.134.132.27.191.408.088.2.18.4.271.6.113.263.234.524.343.789.106.229.211.46.307.694.2.43.384.868.582,1.3.962,2.17,1.939,4.334,2.9,6.5.1.232.209.461.308.694s.208.462.31.694a1.722,1.722,0,0,0,.4.687,1.452,1.452,0,0,0,.364-.624c.117-.251.227-.5.338-.758,1.047-2.349,2.1-4.694,3.147-7.045.1-.232.207-.462.308-.694s.207-.463.308-.694.206-.463.308-.7l.334-.758c.1-.232.208-.463.307-.7.065-.141.129-.283.2-.422-.12-.046-.236-.1-.355-.143-.08-.025-.158-.051-.236-.078l-.171-.043c-.3-.106-.606-.174-.909-.26-.232-.045-.463-.1-.691-.157-.309-.05-.619-.093-.926-.156a4.36,4.36,0,0,1-.618-.079c-.385-.036-.775-.015-1.157-.08-.758-.039-1.513.051-2.269.081M11.193,4.047a18.2,18.2,0,0,0-5.9,5.62,2.121,2.121,0,0,0,.218.524c.117.226.225.457.336.686.127.257.255.514.386.77,1.346,2.736,2.723,5.458,4.064,8.2.038.072.075.144.112.216.154.31.307.621.458.933q1.584,3.193,3.174,6.383a.278.278,0,0,0,.29.185c.119-.219.225-.446.323-.676.085-.213.181-.422.272-.633s.172-.4.261-.6.187-.42.273-.633.177-.4.264-.6q1.01-2.321,2.033-4.637a.424.424,0,0,1,.43-.27q1.545,0,3.093,0a.434.434,0,0,1,.438.3c.673,1.535,1.35,3.067,2.016,4.6.088.2.175.4.266.6s.182.422.273.632.172.4.26.606c.2.429.355.878.591,1.289l.188.006c.855-1.643,1.66-3.313,2.492-4.969,1.85-3.752,3.719-7.5,5.578-11.243.144-.273.266-.558.412-.83a4.98,4.98,0,0,1,.417-.784c-.156-.191-.287-.4-.426-.6a18.028,18.028,0,0,0-5.517-5.076A.793.793,0,0,0,28,3.943q-1.437,3.165-2.859,6.339c-.122.283-.256.561-.376.844-.09.2-.181.4-.275.6-.113.264-.233.525-.344.79s-.231.5-.342.756q-.979,2.188-1.967,4.372a2.441,2.441,0,0,1-.233.459.67.67,0,0,1-.489.134c-.955,0-1.911,0-2.865,0a.475.475,0,0,1-.5-.274q-1.061-2.343-2.112-4.688-.168-.38-.34-.757c-.113-.264-.234-.524-.351-.785s-.224-.507-.337-.76c-1.043-2.354-2.123-4.693-3.162-7.049-.087.038-.175.076-.26.122m24.622,8.94c-.344.755-.735,1.488-1.094,2.235-.105.205-.209.411-.308.619s-.2.412-.3.619l-.118.221c-.036.08-.073.159-.111.238l-.08.16c-.039.073-.076.147-.114.22-.059.136-.125.269-.189.4-1.259,2.549-2.544,5.085-3.8,7.636l-.076.154c-.054.1-.1.206-.154.31s-.1.205-.151.31-.1.2-.152.308l-.076.155-.112.215c-.124.26-.256.515-.382.774-.943,1.928-1.909,3.844-2.871,5.763a.6.6,0,0,1-.864.3c-.317-.223-.394-.633-.556-.962-.116-.251-.229-.5-.339-.758-1.144-2.583-2.3-5.159-3.452-7.74-.1-.232-.209-.462-.307-.7s-.213-.463-.3-.7a.211.211,0,0,0-.3-.085,9.566,9.566,0,0,0-.4.882c-1.159,2.6-2.33,5.2-3.481,7.8l-.272.6c-.11.264-.232.523-.344.787a5.879,5.879,0,0,1-.33.69.6.6,0,0,1-.7.23.753.753,0,0,1-.385-.4c-.955-1.927-1.927-3.846-2.876-5.776-.049-.1-.1-.206-.15-.308-.1-.208-.2-.413-.307-.618l-.076-.156c-.049-.1-.1-.2-.154-.307s-.1-.206-.154-.308c-.038-.084-.076-.167-.116-.249-.064-.124-.126-.247-.188-.371-.076-.155-.151-.31-.232-.463-1.254-2.555-2.55-5.089-3.8-7.646-.019-.039-.057-.117-.076-.156-.087-.184-.179-.365-.269-.548s-.178-.355-.27-.53c-.036-.082-.073-.164-.109-.245s-.077-.144-.115-.215c-.387-.785-.773-1.571-1.167-2.353a3.744,3.744,0,0,0-.3.776A17.078,17.078,0,0,0,4.462,26.876c.008.021.023.063.032.084.2.344.384.7.6,1.033a17.507,17.507,0,0,0,8,6.906c.129.052.257.105.387.155.1.039.191.076.287.115s.22.077.331.115l.232.084.232.073c.2.063.4.115.6.178.307.083.617.157.927.231.128.022.257.046.385.076s.26.049.388.081a16.107,16.107,0,0,0,1.868.193,9.051,9.051,0,0,0,1.924,0A14.48,14.48,0,0,0,22.59,36c.129-.031.26-.053.39-.075s.256-.053.386-.076c.309-.075.619-.148.926-.231.2-.063.4-.117.6-.179.079-.029.157-.056.236-.083l.161-.044c.229-.087.46-.169.687-.259l.386-.158a17.5,17.5,0,0,0,9.7-10.571,16.926,16.926,0,0,0-.249-11.338Z" transform="translate(-0.702)"/></svg>