<svg xmlns="http://www.w3.org/2000/svg" xmlns:xlink="http://www.w3.org/1999/xlink" width="133.164" height="26.555" viewBox="0 0 133.164 26.555"><defs><style>.a{fill:#161616;}.b{clip-path:url(#a);}</style><clipPath id="a"><path class="a" d="M32.885,24.065a15.98,15.98,0,0,0,4.864-.769c.368-.124.721-.262,1.054-.411a5.919,5.919,0,0,1-1.787,2.442,11.988,11.988,0,0,1-5.327,2.208,12.456,12.456,0,0,0,1.2-3.471m-8.207,2.418a.552.552,0,0,0-.12-.079c-.686-.334-.963-1.864-.606-4.2a21.219,21.219,0,0,0,4.262,1.384,21.748,21.748,0,0,0,3.4.454c-.546,2.373-1.246,3.62-1.71,3.62a.553.553,0,0,0-.087.01,11.977,11.977,0,0,1-5.136-1.186m-6.368-7.56a6.459,6.459,0,0,1-.2-1.226,10.8,10.8,0,0,0,1.514,1.713A15.392,15.392,0,0,0,22.8,21.632a11.353,11.353,0,0,0-.159,3.6,12.068,12.068,0,0,1-4.328-6.311m15.352-3.317c0-.482-.007-.967-.021-1.449a9.57,9.57,0,0,0,4.124-1.171,14.536,14.536,0,0,1,1.653,6.51,10.138,10.138,0,0,1-.152,1.753,9.451,9.451,0,0,1-1.912.877,14.517,14.517,0,0,1-4.236.7,45.2,45.2,0,0,0,.544-7.221m-5.189,6.773a19.919,19.919,0,0,1-4.284-1.429,31.7,31.7,0,0,1,2.5-6.878q.276-.565.564-1.11a14.318,14.318,0,0,0,2.865.93,13.068,13.068,0,0,0,2.29.28q.021.695.02,1.433a41.623,41.623,0,0,1-.568,7.209,20.614,20.614,0,0,1-3.385-.436M20.464,18.5a7.858,7.858,0,0,1-2.138-3.016A9.6,9.6,0,0,1,20.011,12.1,13.406,13.406,0,0,1,22.9,9.314a7,7,0,0,0,1.355,1.7,10.228,10.228,0,0,0,1.9,1.388q-.293.556-.573,1.13a34.476,34.476,0,0,0-2.515,6.84,13.769,13.769,0,0,1-2.6-1.867M32.824,7.027A16.648,16.648,0,0,1,36.592,11q.306.448.579.91a8.4,8.4,0,0,1-3.581,1.007,34.669,34.669,0,0,0-.766-5.888m-2.449,5.658a13.027,13.027,0,0,1-2.526-.809A26.53,26.53,0,0,1,31.505,6.8a32.484,32.484,0,0,1,.852,6.132,11.8,11.8,0,0,1-1.982-.252M25.1,10.111a5.6,5.6,0,0,1-1.16-1.477,16.744,16.744,0,0,1,3.8-1.674,17.879,17.879,0,0,1,2.452-.55,29.047,29.047,0,0,0-3.445,4.909A8.948,8.948,0,0,1,25.1,10.111M22.442,6.176c-.017.062-.035.126-.049.191a3.907,3.907,0,0,0,.036,1.771,14.742,14.742,0,0,0-3.4,3.218,12.359,12.359,0,0,0-.758,1.13,12.071,12.071,0,0,1,4.176-6.311m1.159.448a2.96,2.96,0,0,1,1.118-1.687,7.752,7.752,0,0,1,4.882.318,18.712,18.712,0,0,0-2.216.522,18.042,18.042,0,0,0-3.826,1.647,2.609,2.609,0,0,1,.041-.8M33.62,5a3.888,3.888,0,0,1,1.141-.54,9.268,9.268,0,0,1,1.816.966A15.283,15.283,0,0,0,33.62,5m-2.08-1.322a13.786,13.786,0,0,1,1.585.27,8.024,8.024,0,0,0-1.064.693,6.279,6.279,0,0,0-.522-.963M30.2,4.16a11.412,11.412,0,0,0-1.655-.5,11.92,11.92,0,0,1,1.328-.077c.21,0,.468.255.738.744-.137-.058-.274-.116-.411-.169M16.613,15.627a13.231,13.231,0,0,0,.512,3.64c.02.078.039.155.062.233,0,.014.011.027.016.043a13.272,13.272,0,0,0,20.131,7.074c.021-.013.043-.023.062-.036q.189-.129.366-.271a13.311,13.311,0,0,0,5.008-7.458c.043-.139.08-.281.111-.425a.6.6,0,0,0,.011-.1,13.318,13.318,0,0,0-.768-7.866.618.618,0,0,0-1.138.481,12.048,12.048,0,0,1,.593,7.578,4.351,4.351,0,0,1-.946,1.617c.011-.209.018-.421.018-.638a15.857,15.857,0,0,0-1.865-7.223,4.774,4.774,0,0,0,1.654-2.768.618.618,0,0,0-1.215-.224,3.482,3.482,0,0,1-1.06,1.885c-.177-.292-.36-.582-.555-.866A18,18,0,0,0,33.83,6.241a11.838,11.838,0,0,1,4.965,1.347.629.629,0,0,0,.709-.05.617.617,0,0,0,.078-.871C37.592,3.885,34.151,2.35,29.89,2.35A13.292,13.292,0,0,0,16.613,15.627" transform="translate(-16.613 -2.35)"/></clipPath></defs><g class="b"><rect class="a" width="26.556" height="26.555" transform="translate(0 -0.001)"/></g><g transform="translate(29.479 5.746)"><path class="a" d="M75.7,41.542h6.7v1.375H79.938v6.9H78.16v-6.9H75.7V41.542Z" transform="translate(-75.696 -41.369)"/><path class="a" d="M81.9,49.815V41.542h1.777v3.266H86.8V41.542h1.8v8.274H86.827V46.182H83.675v3.633Z" transform="translate(-74.253 -41.369)"/><path class="a" d="M88.511,41.542h5.547v1.375H90.289v1.937h3.53v1.375h-3.53v2.212h3.9v1.375H88.512V41.542Z" transform="translate(-72.713 -41.369)"/><path class="a" d="M101.063,41.542h2l1.444,6.223h.022l1.33-6.223h1.7l-2.108,8.274h-1.97l-1.489-6.3h-.022l-1.606,6.3H98.348l-2.017-8.274h1.834l1.271,6.223h.025Z" transform="translate(-70.893 -41.369)"/><path class="a" d="M105.93,45.712c0-2.441,1.237-4.31,3.975-4.31s3.977,1.869,3.977,4.31-1.239,4.307-3.977,4.307S105.93,48.152,105.93,45.712Zm1.889,0c0,1.419.333,3.024,2.086,3.024s2.086-1.6,2.086-3.024-.333-3.027-2.086-3.027S107.819,44.291,107.819,45.712Z" transform="translate(-68.659 -41.401)"/><path class="a" d="M115.106,49.815h-1.777V41.542h3.517c1.422.011,2.877.469,2.877,2.155a1.993,1.993,0,0,1-1.719,2v.022c1.364.149,1.364.985,1.513,2.131A5.252,5.252,0,0,0,120,49.814h-1.96c-.148-.732-.229-1.477-.309-2.223-.047-.457-.162-1.088-.745-1.11h-1.878v3.333Zm0-4.71h1.488c.781-.014,1.239-.4,1.239-1.136s-.457-1.042-1.239-1.053h-1.488Z" transform="translate(-66.938 -41.369)"/><path class="a" d="M119.62,49.815V41.542H121.4v6.9h3.587v1.375Z" transform="translate(-65.473 -41.369)"/><path class="a" d="M124.75,41.542h2.82c2.577-.022,4.182,1.26,4.182,4.137s-1.6,4.159-4.182,4.136h-2.82Zm1.776,6.9h.917c2.11.022,2.42-1.445,2.42-2.761s-.31-2.785-2.42-2.762h-.917Z" transform="translate(-64.279 -41.369)"/><path class="a" d="M134.08,49.817V41.543h3.106c1.478-.092,2.991.528,2.991,2.143a1.927,1.927,0,0,1-1.456,1.81v.022a2.111,2.111,0,0,1,1.822,2.154c0,1.639-2.064,2.236-3.334,2.143Zm3.163-1.375c.837,0,1.409-.149,1.409-1.1s-.572-1.1-1.409-1.1h-1.388v2.2h1.388Zm0-3.574c.745,0,1.156-.31,1.156-.974s-.412-.974-1.156-.974h-1.388v1.949Z" transform="translate(-62.108 -41.371)"/><path class="a" d="M139.77,49.815l2.992-8.274h2.109l2.875,8.274h-1.786l-.6-1.753h-3.277l-.62,1.753Zm5.146-3.128-1.134-3.53h-.022l-1.214,3.53Z" transform="translate(-60.784 -41.369)"/><path class="a" d="M151.934,49.816l-3.266-6.876-.022.022v6.852h-1.661V41.541h2.635l3.153,6.509.022-.025V41.539h1.662v8.274Z" transform="translate(-59.105 -41.369)"/><path class="a" d="M156,45.117h.022l2.751-3.576h2.074l-3.037,3.7,3.3,4.572h-2.211L156.018,45.6H156v4.217H154.22V41.542H156v3.576Z" transform="translate(-57.421 -41.369)"/></g></svg>